{
  "source": "C:\\Users\\Peter\\Desktop\\stuff\\MIUN\\quantitative_research\\video_compression\\videos\\BVI-HD\\Lightreef_1920x1080_30fps.mp4",
  "output": "C:\\Users\\Peter\\Desktop\\stuff\\MIUN\\quantitative_research\\video_compression\\compressed_videos\\BVI-HD\\hevc\\12\\Lightreef_1920x1080_30fps_hevc.mp4",
  "codec": "hevc",
  "ok": "Input #0, mov,mp4,m4a,3gp,3g2,mj2, from 'C:\\Users\\Peter\\Desktop\\stuff\\MIUN\\quantitative_research\\video_compression\\videos\\BVI-HD\\Lightreef_1920x1080_30fps.mp4':\n  Metadata:\n    major_brand     : isom\n    minor_version   : 512\n    compatible_brands: isomiso2avc1mp41\n    encoder         : Lavf54.28.101\n  Duration: 00:00:05.00, start: 0.000000, bitrate: 361719 kb/s\n  Stream #0:0[0x1](und): Video: h264 (High 4:4:4 Predictive) (avc1 / 0x31637661), yuv420p(progressive), 1920x1080, 361715 kb/s, 30 fps, 30 tbr, 30 tbn (default)\n    Metadata:\n      handler_name    : VideoHandler\n      vendor_id       : [0][0][0][0]\n[out#0/mp4 @ 000001af7f581800] Codec AVOption b:a (set bitrate (in bits/s)) has not been used for any stream. The most likely reason is either wrong type (e.g. a video option with no video streams) or that it is a private option of some decoder which was not actually used for any stream.\nStream mapping:\n  Stream #0:0 -> #0:0 (h264 (native) -> hevc (libx265))\nPress [q] to stop, [?] for help\n[libx265 @ 000001af002102c0] Unknown option: \"aq-mode.\nx265 [info]: HEVC encoder version 4.1+190-8f11c33ac\nx265 [info]: build info [Windows][GCC 15.1.0][64 bit] 10bit\nx265 [info]: using cpu capabilities: MMX2 SSE2Fast LZCNT SSSE3 SSE4.2 AVX FMA3 BMI2 AVX2\nx265 [info]: Main 10 profile, Level-4 (Main tier)\nx265 [info]: Thread pool created using 12 threads\nx265 [info]: Slices                              : 1\nx265 [info]: frame threads / pool features       : 3 / wpp(17 rows)\nx265 [info]: Coding QT: max CU size, min CU size : 64 / 8\nx265 [info]: Residual QT: max TU size, max depth : 32 / 1 inter / 1 intra\nx265 [info]: ME / range / subpel / merge         : star / 57 / 3 / 3\nx265 [info]: Keyframe min / max / scenecut / bias  : 25 / 250 / 40 / 5.00 \nx265 [info]: Lookahead / bframes / badapt        : 25 / 4 / 2\nx265 [info]: b-pyramid / weightp / weightb       : 1 / 1 / 0\nx265 [info]: References / ref-limit  cu / depth  : 4 / on / on\nx265 [info]: AQ: mode / str / qg-size / cu-tree  : 2 / 1.0 / 32 / 1\nx265 [info]: Rate Control / qCompress            : ABR-12000 kbps / 0.60\nx265 [info]: VBV/HRD buffer / max-rate / init    : 12000 / 12000 / 0.750\nx265 [info]: tools: rect limit-modes rd=4 psy-rd=2.00 rdoq=2 psy-rdoq=1.00\nx265 [info]: tools: rskip mode=1 signhide tmvp strong-intra-smoothing lslices=4\nx265 [info]: tools: deblock sao dhdr10-info\nOutput #0, mp4, to 'C:\\Users\\Peter\\Desktop\\stuff\\MIUN\\quantitative_research\\video_compression\\compressed_videos\\BVI-HD\\hevc\\12\\Lightreef_1920x1080_30fps_hevc.mp4':\n  Metadata:\n    major_brand     : isom\n    minor_version   : 512\n    compatible_brands: isomiso2avc1mp41\n    encoder         : Lavf62.3.100\n  Stream #0:0(und): Video: hevc (hev1 / 0x31766568), yuv420p10le(tv, progressive), 1920x1080, q=2-31, 12000 kb/s, 30 fps, 15360 tbn (default)\n    Metadata:\n      encoder         : Lavc62.11.100 libx265\n      handler_name    : VideoHandler\n      vendor_id       : [0][0][0][0]\n    Side data:\n      cpb: bitrate max/min/avg: 12000000/0/12000000 buffer size: 12000000 vbv_delay: N/A\nframe=    0 fps=0.0 q=0.0 size=       0KiB time=N/A bitrate=N/A speed=N/A elapsed=0:00:01.25    \nframe=    0 fps=0.0 q=0.0 size=       0KiB time=N/A bitrate=N/A speed=N/A elapsed=0:00:01.85    \nframe=    0 fps=0.0 q=0.0 size=       0KiB time=N/A bitrate=N/A speed=N/A elapsed=0:00:02.47    \nframe=    0 fps=0.0 q=0.0 size=       0KiB time=N/A bitrate=N/A speed=N/A elapsed=0:00:03.03    \nframe=    0 fps=0.0 q=0.0 size=       0KiB time=N/A bitrate=N/A speed=N/A elapsed=0:00:03.59    \nframe=    0 fps=0.0 q=0.0 size=       0KiB time=N/A bitrate=N/A speed=N/A elapsed=0:00:04.20    \nframe=    0 fps=0.0 q=0.0 size=       0KiB time=N/A bitrate=N/A speed=N/A elapsed=0:00:04.78    \nframe=    0 fps=0.0 q=0.0 size=       0KiB time=N/A bitrate=N/A speed=N/A elapsed=0:00:05.31    \nframe=    0 fps=0.0 q=0.0 size=       0KiB time=N/A bitrate=N/A speed=N/A elapsed=0:00:05.85    \nframe=    0 fps=0.0 q=0.0 size=       0KiB time=N/A bitrate=N/A speed=N/A elapsed=0:00:06.43    \nframe=    0 fps=0.0 q=0.0 size=       0KiB time=N/A bitrate=N/A speed=N/A elapsed=0:00:07.04    \nframe=    0 fps=0.0 q=0.0 size=       0KiB time=N/A bitrate=N/A speed=N/A elapsed=0:00:07.60    \nframe=    0 fps=0.0 q=0.0 size=       0KiB time=N/A bitrate=N/A speed=N/A elapsed=0:00:08.13    \nframe=    0 fps=0.0 q=0.0 size=       0KiB time=N/A bitrate=N/A speed=N/A elapsed=0:00:08.67    \nframe=    0 fps=0.0 q=0.0 size=       0KiB time=N/A bitrate=N/A speed=N/A elapsed=0:00:09.25    \nframe=    0 fps=0.0 q=0.0 size=       0KiB time=N/A bitrate=N/A speed=N/A elapsed=0:00:09.81    \nframe=    0 fps=0.0 q=0.0 size=       0KiB time=N/A bitrate=N/A speed=N/A elapsed=0:00:10.34    \nframe=    0 fps=0.0 q=0.0 size=       0KiB time=N/A bitrate=N/A speed=N/A elapsed=0:00:10.86    \nframe=    0 fps=0.0 q=0.0 size=       0KiB time=N/A bitrate=N/A speed=N/A elapsed=0:00:11.41    \nframe=    0 fps=0.0 q=0.0 size=       0KiB time=N/A bitrate=N/A speed=N/A elapsed=0:00:11.98    \nframe=    0 fps=0.0 q=0.0 size=       0KiB time=N/A bitrate=N/A speed=N/A elapsed=0:00:12.55    \nframe=    0 fps=0.0 q=0.0 size=       0KiB time=N/A bitrate=N/A speed=N/A elapsed=0:00:13.08    \nframe=    0 fps=0.0 q=0.0 size=       0KiB time=N/A bitrate=N/A speed=N/A elapsed=0:00:13.62    \nframe=    0 fps=0.0 q=0.0 size=       0KiB time=N/A bitrate=N/A speed=N/A elapsed=0:00:14.22    \nframe=    0 fps=0.0 q=0.0 size=       0KiB time=N/A bitrate=N/A speed=N/A elapsed=0:00:14.75    \nframe=    0 fps=0.0 q=0.0 size=       0KiB time=N/A bitrate=N/A speed=N/A elapsed=0:00:15.27    \nframe=    0 fps=0.0 q=0.0 size=       0KiB time=N/A bitrate=N/A speed=N/A elapsed=0:00:15.82    \nframe=    0 fps=0.0 q=0.0 size=       0KiB time=N/A bitrate=N/A speed=N/A elapsed=0:00:16.33    \nframe=    0 fps=0.0 q=0.0 size=       0KiB time=N/A bitrate=N/A speed=N/A elapsed=0:00:16.89    \nframe=    0 fps=0.0 q=0.0 size=       0KiB time=N/A bitrate=N/A speed=N/A elapsed=0:00:17.45    \nframe=    0 fps=0.0 q=0.0 size=       0KiB time=N/A bitrate=N/A speed=N/A elapsed=0:00:18.00    \nframe=    0 fps=0.0 q=0.0 size=       0KiB time=N/A bitrate=N/A speed=N/A elapsed=0:00:18.54    \nframe=    0 fps=0.0 q=0.0 size=       0KiB time=N/A bitrate=N/A speed=N/A elapsed=0:00:19.10    \nframe=    0 fps=0.0 q=0.0 size=       0KiB time=N/A bitrate=N/A speed=N/A elapsed=0:00:19.64    \nframe=    0 fps=0.0 q=0.0 size=       0KiB time=N/A bitrate=N/A speed=N/A elapsed=0:00:20.19    \nframe=    0 fps=0.0 q=0.0 size=       0KiB time=N/A bitrate=N/A speed=N/A elapsed=0:00:20.73    \nframe=    0 fps=0.0 q=0.0 size=       0KiB time=N/A bitrate=N/A speed=N/A elapsed=0:00:21.29    \nframe=    0 fps=0.0 q=0.0 size=       0KiB time=N/A bitrate=N/A speed=N/A elapsed=0:00:21.84    \nframe=    0 fps=0.0 q=0.0 size=       0KiB time=N/A bitrate=N/A speed=N/A elapsed=0:00:22.36    \nframe=    0 fps=0.0 q=0.0 size=       0KiB time=N/A bitrate=N/A speed=N/A elapsed=0:00:22.88    \nframe=    0 fps=0.0 q=0.0 size=       0KiB time=N/A bitrate=N/A speed=N/A elapsed=0:00:23.40    \nframe=    0 fps=0.0 q=0.0 size=       0KiB time=N/A bitrate=N/A speed=N/A elapsed=0:00:23.99    \nframe=    0 fps=0.0 q=0.0 size=       0KiB time=N/A bitrate=N/A speed=N/A elapsed=0:00:24.57    \nframe=    0 fps=0.0 q=0.0 size=       0KiB time=N/A bitrate=N/A speed=N/A elapsed=0:00:25.16    \nframe=    0 fps=0.0 q=0.0 size=       0KiB time=N/A bitrate=N/A speed=N/A elapsed=0:00:25.82    \nframe=    0 fps=0.0 q=0.0 size=       0KiB time=N/A bitrate=N/A speed=N/A elapsed=0:00:26.41    \nframe=    0 fps=0.0 q=0.0 size=       0KiB time=N/A bitrate=N/A speed=N/A elapsed=0:00:26.93    \nframe=    0 fps=0.0 q=0.0 size=       0KiB time=N/A bitrate=N/A speed=N/A elapsed=0:00:27.56    \nframe=    0 fps=0.0 q=0.0 size=       0KiB time=N/A bitrate=N/A speed=N/A elapsed=0:00:28.16    \nframe=    0 fps=0.0 q=0.0 size=       0KiB time=N/A bitrate=N/A speed=N/A elapsed=0:00:28.71    \nframe=    0 fps=0.0 q=0.0 size=       0KiB time=N/A bitrate=N/A speed=N/A elapsed=0:00:29.24    \nframe=    0 fps=0.0 q=0.0 size=       0KiB time=N/A bitrate=N/A speed=N/A elapsed=0:00:29.77    \nframe=    0 fps=0.0 q=0.0 size=       0KiB time=N/A bitrate=N/A speed=N/A elapsed=0:00:30.31    \nframe=    0 fps=0.0 q=0.0 size=       0KiB time=N/A bitrate=N/A speed=N/A elapsed=0:00:30.86    \nframe=    0 fps=0.0 q=0.0 size=       0KiB time=N/A bitrate=N/A speed=N/A elapsed=0:00:31.40    \nframe=    0 fps=0.0 q=0.0 size=       0KiB time=N/A bitrate=N/A speed=N/A elapsed=0:00:31.93    \nframe=    0 fps=0.0 q=0.0 size=       0KiB time=N/A bitrate=N/A speed=N/A elapsed=0:00:32.49    \nframe=    0 fps=0.0 q=0.0 size=       0KiB time=N/A bitrate=N/A speed=N/A elapsed=0:00:33.04    \nframe=    0 fps=0.0 q=0.0 size=       0KiB time=N/A bitrate=N/A speed=N/A elapsed=0:00:33.61    \nframe=    0 fps=0.0 q=0.0 size=       0KiB time=N/A bitrate=N/A speed=N/A elapsed=0:00:34.15    \nframe=    0 fps=0.0 q=0.0 size=       0KiB time=N/A bitrate=N/A speed=N/A elapsed=0:00:34.70    \nframe=    1 fps=0.0 q=24.2 size=       0KiB time=-00:00:00.03 bitrate=N/A speed=N/A elapsed=0:00:35.32    \nframe=    1 fps=0.0 q=24.2 size=       0KiB time=-00:00:00.03 bitrate=N/A speed=N/A elapsed=0:00:35.88    \nframe=    1 fps=0.0 q=24.2 size=       0KiB time=-00:00:00.03 bitrate=N/A speed=N/A elapsed=0:00:36.44    \nframe=    1 fps=0.0 q=24.2 size=       0KiB time=-00:00:00.03 bitrate=N/A speed=N/A elapsed=0:00:37.03    \nframe=    1 fps=0.0 q=24.2 size=       0KiB time=-00:00:00.03 bitrate=N/A speed=N/A elapsed=0:00:37.69    \nframe=    1 fps=0.0 q=24.2 size=       0KiB time=-00:00:00.03 bitrate=N/A speed=N/A elapsed=0:00:38.24    \nframe=    1 fps=0.0 q=24.2 size=       0KiB time=-00:00:00.03 bitrate=N/A speed=N/A elapsed=0:00:38.76    \nframe=    1 fps=0.0 q=24.2 size=       0KiB time=-00:00:00.03 bitrate=N/A speed=N/A elapsed=0:00:39.30    \nframe=    1 fps=0.0 q=24.2 size=       0KiB time=-00:00:00.03 bitrate=N/A speed=N/A elapsed=0:00:39.89    \nframe=    1 fps=0.0 q=24.2 size=       0KiB time=-00:00:00.03 bitrate=N/A speed=N/A elapsed=0:00:40.43    \nframe=    2 fps=0.0 q=30.5 size=     256KiB time=00:00:00.00 bitrate=N/A speed=   0x elapsed=0:00:40.96    \nframe=    2 fps=0.0 q=30.5 size=     256KiB time=00:00:00.00 bitrate=N/A speed=   0x elapsed=0:00:41.51    \nframe=    2 fps=0.0 q=30.5 size=     256KiB time=00:00:00.00 bitrate=N/A speed=   0x elapsed=0:00:42.03    \nframe=    2 fps=0.0 q=30.5 size=     256KiB time=00:00:00.00 bitrate=N/A speed=   0x elapsed=0:00:42.63    \nframe=    2 fps=0.0 q=30.5 size=     256KiB time=00:00:00.00 bitrate=N/A speed=   0x elapsed=0:00:43.15    \nframe=    2 fps=0.0 q=30.5 size=     256KiB time=00:00:00.00 bitrate=N/A speed=   0x elapsed=0:00:43.73    \nframe=    3 fps=0.1 q=35.1 size=     256KiB time=00:00:00.03 bitrate=62925.7kbits/s speed=0.000753x elapsed=0:00:44.28    \nframe=    3 fps=0.1 q=35.1 size=     256KiB time=00:00:00.03 bitrate=62925.7kbits/s speed=0.000744x elapsed=0:00:44.80    \nframe=    3 fps=0.1 q=35.1 size=     256KiB time=00:00:00.03 bitrate=62925.7kbits/s speed=0.000735x elapsed=0:00:45.32    \nframe=    4 fps=0.1 q=36.4 size=     256KiB time=00:00:00.06 bitrate=31462.4kbits/s speed=0.00145x elapsed=0:00:45.91    \nframe=    4 fps=0.1 q=36.4 size=     256KiB time=00:00:00.06 bitrate=31462.4kbits/s speed=0.00144x elapsed=0:00:46.44    \nframe=    4 fps=0.1 q=36.4 size=     256KiB time=00:00:00.06 bitrate=31462.4kbits/s speed=0.00142x elapsed=0:00:46.98    \nframe=    4 fps=0.1 q=36.4 size=     256KiB time=00:00:00.06 bitrate=31462.4kbits/s speed=0.0014x elapsed=0:00:47.51    \nframe=    4 fps=0.1 q=36.4 size=     256KiB time=00:00:00.06 bitrate=31462.4kbits/s speed=0.00139x elapsed=0:00:48.04    \nframe=    4 fps=0.1 q=36.4 size=     256KiB time=00:00:00.06 bitrate=31462.4kbits/s speed=0.00137x elapsed=0:00:48.61    \nframe=    4 fps=0.1 q=36.4 size=     256KiB time=00:00:00.06 bitrate=31462.4kbits/s speed=0.00136x elapsed=0:00:49.16    \nframe=    4 fps=0.1 q=36.4 size=     256KiB time=00:00:00.06 bitrate=31462.4kbits/s speed=0.00134x elapsed=0:00:49.70    \nframe=    5 fps=0.1 q=36.4 size=     256KiB time=00:00:00.10 bitrate=20975.0kbits/s speed=0.00199x elapsed=0:00:50.25    \nframe=    5 fps=0.1 q=36.4 size=     256KiB time=00:00:00.10 bitrate=20975.0kbits/s speed=0.00197x elapsed=0:00:50.77    \nframe=    5 fps=0.1 q=36.4 size=     256KiB time=00:00:00.10 bitrate=20975.0kbits/s speed=0.00195x elapsed=0:00:51.29    \nframe=    5 fps=0.1 q=36.4 size=     256KiB time=00:00:00.10 bitrate=20975.0kbits/s speed=0.00193x elapsed=0:00:51.83    \nframe=    5 fps=0.1 q=36.4 size=     256KiB time=00:00:00.10 bitrate=20975.0kbits/s speed=0.00191x elapsed=0:00:52.35    \nframe=    5 fps=0.1 q=36.4 size=     256KiB time=00:00:00.10 bitrate=20975.0kbits/s speed=0.00189x elapsed=0:00:52.88    \nframe=    5 fps=0.1 q=36.4 size=     256KiB time=00:00:00.10 bitrate=20975.0kbits/s speed=0.00187x elapsed=0:00:53.47    \nframe=    5 fps=0.1 q=36.4 size=     256KiB time=00:00:00.10 bitrate=20975.0kbits/s speed=0.00185x elapsed=0:00:53.99    \nframe=    5 fps=0.1 q=36.4 size=     256KiB time=00:00:00.10 bitrate=20975.0kbits/s speed=0.00183x elapsed=0:00:54.54    \nframe=    5 fps=0.1 q=36.4 size=     256KiB time=00:00:00.10 bitrate=20975.0kbits/s speed=0.00182x elapsed=0:00:55.07    \nframe=    5 fps=0.1 q=36.4 size=     256KiB time=00:00:00.10 bitrate=20975.0kbits/s speed=0.0018x elapsed=0:00:55.62    \nframe=    6 fps=0.1 q=36.5 size=     256KiB time=00:00:00.13 bitrate=15731.3kbits/s speed=0.00237x elapsed=0:00:56.19    \nframe=    6 fps=0.1 q=36.5 size=     256KiB time=00:00:00.13 bitrate=15731.3kbits/s speed=0.00235x elapsed=0:00:56.72    \nframe=    6 fps=0.1 q=36.5 size=     256KiB time=00:00:00.13 bitrate=15731.3kbits/s speed=0.00233x elapsed=0:00:57.26    \nframe=    6 fps=0.1 q=36.5 size=     256KiB time=00:00:00.13 bitrate=15731.3kbits/s speed=0.00231x elapsed=0:00:57.81    \nframe=    6 fps=0.1 q=36.5 size=     256KiB time=00:00:00.13 bitrate=15731.3kbits/s speed=0.00228x elapsed=0:00:58.36    \nframe=    6 fps=0.1 q=36.5 size=     256KiB time=00:00:00.13 bitrate=15731.3kbits/s speed=0.00226x elapsed=0:00:58.92    \nframe=    6 fps=0.1 q=36.5 size=     256KiB time=00:00:00.13 bitrate=15731.3kbits/s speed=0.00224x elapsed=0:00:59.52    \nframe=    6 fps=0.1 q=36.5 size=     256KiB time=00:00:00.13 bitrate=15731.3kbits/s speed=0.00222x elapsed=0:01:00.14    \nframe=    6 fps=0.1 q=36.5 size=     256KiB time=00:00:00.13 bitrate=15731.3kbits/s speed=0.00219x elapsed=0:01:00.75    \nframe=    6 fps=0.1 q=36.5 size=     256KiB time=00:00:00.13 bitrate=15731.3kbits/s speed=0.00217x elapsed=0:01:01.35    \nframe=    6 fps=0.1 q=36.5 size=     256KiB time=00:00:00.13 bitrate=15731.3kbits/s speed=0.00215x elapsed=0:01:01.97    \nframe=    6 fps=0.1 q=36.5 size=     256KiB time=00:00:00.13 bitrate=15731.3kbits/s speed=0.00213x elapsed=0:01:02.56    \nframe=    6 fps=0.1 q=36.5 size=     256KiB time=00:00:00.13 bitrate=15731.3kbits/s speed=0.00211x elapsed=0:01:03.16    \nframe=    6 fps=0.1 q=36.5 size=     256KiB time=00:00:00.13 bitrate=15731.3kbits/s speed=0.00209x elapsed=0:01:03.75    \nframe=    6 fps=0.1 q=36.5 size=     256KiB time=00:00:00.13 bitrate=15731.3kbits/s speed=0.00207x elapsed=0:01:04.36    \nframe=    6 fps=0.1 q=36.5 size=     256KiB time=00:00:00.13 bitrate=15731.3kbits/s speed=0.00205x elapsed=0:01:04.92    \nframe=    6 fps=0.1 q=36.5 size=     256KiB time=00:00:00.13 bitrate=15731.3kbits/s speed=0.00203x elapsed=0:01:05.52    \nframe=    6 fps=0.1 q=36.5 size=     256KiB time=00:00:00.13 bitrate=15731.3kbits/s speed=0.00202x elapsed=0:01:06.06    \nframe=    7 fps=0.1 q=30.4 size=     256KiB time=00:00:00.16 bitrate=12585.0kbits/s speed=0.0025x elapsed=0:01:06.60    \nframe=    7 fps=0.1 q=30.4 size=     256KiB time=00:00:00.16 bitrate=12585.0kbits/s speed=0.00248x elapsed=0:01:07.16    \nframe=    7 fps=0.1 q=30.4 size=     256KiB time=00:00:00.16 bitrate=12585.0kbits/s speed=0.00246x elapsed=0:01:07.76    \nframe=    7 fps=0.1 q=30.4 size=     256KiB time=00:00:00.16 bitrate=12585.0kbits/s speed=0.00244x elapsed=0:01:08.32    \nframe=    7 fps=0.1 q=30.4 size=     256KiB time=00:00:00.16 bitrate=12585.0kbits/s speed=0.00242x elapsed=0:01:08.85    \nframe=    7 fps=0.1 q=30.4 size=     256KiB time=00:00:00.16 bitrate=12585.0kbits/s speed=0.0024x elapsed=0:01:09.39    \nframe=    7 fps=0.1 q=30.4 size=     256KiB time=00:00:00.16 bitrate=12585.0kbits/s speed=0.00238x elapsed=0:01:09.92    \nframe=    8 fps=0.1 q=34.9 size=     512KiB time=00:00:00.20 bitrate=20973.3kbits/s speed=0.00284x elapsed=0:01:10.45    \nframe=    8 fps=0.1 q=34.9 size=     512KiB time=00:00:00.20 bitrate=20973.3kbits/s speed=0.00282x elapsed=0:01:10.96    \nframe=    8 fps=0.1 q=34.9 size=     512KiB time=00:00:00.20 bitrate=20973.3kbits/s speed=0.0028x elapsed=0:01:11.49    \nframe=    9 fps=0.1 q=36.5 size=     512KiB time=00:00:00.23 bitrate=17977.1kbits/s speed=0.00324x elapsed=0:01:12.01    \nframe=    9 fps=0.1 q=36.5 size=     512KiB time=00:00:00.23 bitrate=17977.1kbits/s speed=0.00322x elapsed=0:01:12.52    \nframe=    9 fps=0.1 q=36.5 size=     512KiB time=00:00:00.23 bitrate=17977.1kbits/s speed=0.00319x elapsed=0:01:13.05    \nframe=    9 fps=0.1 q=36.5 size=     512KiB time=00:00:00.23 bitrate=17977.1kbits/s speed=0.00317x elapsed=0:01:13.57    \nframe=    9 fps=0.1 q=36.5 size=     512KiB time=00:00:00.23 bitrate=17977.1kbits/s speed=0.00315x elapsed=0:01:14.09    \nframe=    9 fps=0.1 q=36.5 size=     512KiB time=00:00:00.23 bitrate=17977.1kbits/s speed=0.00313x elapsed=0:01:14.61    \nframe=   10 fps=0.1 q=36.2 size=     512KiB time=00:00:00.26 bitrate=15729.9kbits/s speed=0.00355x elapsed=0:01:15.12    \nframe=   10 fps=0.1 q=36.2 size=     512KiB time=00:00:00.26 bitrate=15729.9kbits/s speed=0.00353x elapsed=0:01:15.64    \nframe=   10 fps=0.1 q=36.2 size=     512KiB time=00:00:00.26 bitrate=15729.9kbits/s speed=0.0035x elapsed=0:01:16.15    \nframe=   10 fps=0.1 q=36.2 size=     512KiB time=00:00:00.26 bitrate=15729.9kbits/s speed=0.00348x elapsed=0:01:16.68    \nframe=   10 fps=0.1 q=36.2 size=     512KiB time=00:00:00.26 bitrate=15729.9kbits/s speed=0.00345x elapsed=0:01:17.20    \nframe=   10 fps=0.1 q=36.2 size=     512KiB time=00:00:00.26 bitrate=15729.9kbits/s speed=0.00343x elapsed=0:01:17.73    \nframe=   10 fps=0.1 q=36.2 size=     512KiB time=00:00:00.26 bitrate=15729.9kbits/s speed=0.00341x elapsed=0:01:18.24    \nframe=   10 fps=0.1 q=36.2 size=     512KiB time=00:00:00.26 bitrate=15729.9kbits/s speed=0.00339x elapsed=0:01:18.76    \nframe=   11 fps=0.1 q=36.0 size=     512KiB time=00:00:00.30 bitrate=13982.2kbits/s speed=0.00378x elapsed=0:01:19.28    \nframe=   11 fps=0.1 q=36.0 size=     512KiB time=00:00:00.30 bitrate=13982.2kbits/s speed=0.00376x elapsed=0:01:19.82    \nframe=   11 fps=0.1 q=36.0 size=     512KiB time=00:00:00.30 bitrate=13982.2kbits/s speed=0.00373x elapsed=0:01:20.37    \nframe=   12 fps=0.1 q=29.1 size=     512KiB time=00:00:00.33 bitrate=12584.0kbits/s speed=0.00412x elapsed=0:01:20.91    \nframe=   12 fps=0.1 q=29.1 size=     512KiB time=00:00:00.33 bitrate=12584.0kbits/s speed=0.00409x elapsed=0:01:21.43    \nframe=   12 fps=0.1 q=29.1 size=     512KiB time=00:00:00.33 bitrate=12584.0kbits/s speed=0.00407x elapsed=0:01:21.95    \nframe=   12 fps=0.1 q=29.1 size=     512KiB time=00:00:00.33 bitrate=12584.0kbits/s speed=0.00404x elapsed=0:01:22.49    \nframe=   13 fps=0.2 q=33.0 size=     768KiB time=00:00:00.36 bitrate=17159.5kbits/s speed=0.00442x elapsed=0:01:23.01    \nframe=   13 fps=0.2 q=33.0 size=     768KiB time=00:00:00.36 bitrate=17159.5kbits/s speed=0.00439x elapsed=0:01:23.53    \nframe=   13 fps=0.2 q=33.0 size=     768KiB time=00:00:00.36 bitrate=17159.5kbits/s speed=0.00436x elapsed=0:01:24.05    \nframe=   13 fps=0.2 q=33.0 size=     768KiB time=00:00:00.36 bitrate=17159.5kbits/s speed=0.00434x elapsed=0:01:24.56    \nframe=   13 fps=0.2 q=33.0 size=     768KiB time=00:00:00.36 bitrate=17159.5kbits/s speed=0.00431x elapsed=0:01:25.08    \nframe=   13 fps=0.2 q=33.0 size=     768KiB time=00:00:00.36 bitrate=17159.5kbits/s speed=0.00428x elapsed=0:01:25.59    \nframe=   13 fps=0.2 q=33.0 size=     768KiB time=00:00:00.36 bitrate=17159.5kbits/s speed=0.00426x elapsed=0:01:26.11    \nframe=   13 fps=0.2 q=33.0 size=     768KiB time=00:00:00.36 bitrate=17159.5kbits/s speed=0.00423x elapsed=0:01:26.66    \nframe=   13 fps=0.1 q=33.0 size=     768KiB time=00:00:00.36 bitrate=17159.5kbits/s speed=0.00421x elapsed=0:01:27.17    \nframe=   13 fps=0.1 q=33.0 size=     768KiB time=00:00:00.36 bitrate=17159.5kbits/s speed=0.00418x elapsed=0:01:27.69    \nframe=   14 fps=0.2 q=35.8 size=     768KiB time=00:00:00.40 bitrate=15729.5kbits/s speed=0.00453x elapsed=0:01:28.20    \nframe=   14 fps=0.2 q=35.8 size=     768KiB time=00:00:00.40 bitrate=15729.5kbits/s speed=0.00451x elapsed=0:01:28.72    \nframe=   14 fps=0.2 q=35.8 size=     768KiB time=00:00:00.40 bitrate=15729.5kbits/s speed=0.00448x elapsed=0:01:29.23    \nframe=   14 fps=0.2 q=35.8 size=     768KiB time=00:00:00.40 bitrate=15729.5kbits/s speed=0.00446x elapsed=0:01:29.74    \nframe=   15 fps=0.2 q=35.5 size=     768KiB time=00:00:00.43 bitrate=14519.6kbits/s speed=0.0048x elapsed=0:01:30.27    \nframe=   15 fps=0.2 q=35.5 size=     768KiB time=00:00:00.43 bitrate=14519.6kbits/s speed=0.00477x elapsed=0:01:30.79    \nframe=   15 fps=0.2 q=35.5 size=     768KiB time=00:00:00.43 bitrate=14519.6kbits/s speed=0.00475x elapsed=0:01:31.31    \nframe=   15 fps=0.2 q=35.5 size=     768KiB time=00:00:00.43 bitrate=14519.6kbits/s speed=0.00472x elapsed=0:01:31.82    \nframe=   16 fps=0.2 q=29.5 size=     768KiB time=00:00:00.46 bitrate=13482.4kbits/s speed=0.00505x elapsed=0:01:32.34    \nframe=   16 fps=0.2 q=29.5 size=     768KiB time=00:00:00.46 bitrate=13482.4kbits/s speed=0.00503x elapsed=0:01:32.85    \nframe=   16 fps=0.2 q=29.5 size=     768KiB time=00:00:00.46 bitrate=13482.4kbits/s speed=0.005x elapsed=0:01:33.37    \nframe=   17 fps=0.2 q=34.1 size=     768KiB time=00:00:00.50 bitrate=12583.6kbits/s speed=0.00532x elapsed=0:01:33.93    \nframe=   17 fps=0.2 q=34.1 size=     768KiB time=00:00:00.50 bitrate=12583.6kbits/s speed=0.00529x elapsed=0:01:34.45    \nframe=   17 fps=0.2 q=34.1 size=     768KiB time=00:00:00.50 bitrate=12583.6kbits/s speed=0.00526x elapsed=0:01:34.97    \nframe=   17 fps=0.2 q=34.1 size=     768KiB time=00:00:00.50 bitrate=12583.6kbits/s speed=0.00523x elapsed=0:01:35.51    \nframe=   18 fps=0.2 q=35.7 size=    1024KiB time=00:00:00.53 bitrate=15729.3kbits/s speed=0.00555x elapsed=0:01:36.03    \nframe=   18 fps=0.2 q=35.7 size=    1024KiB time=00:00:00.53 bitrate=15729.3kbits/s speed=0.00552x elapsed=0:01:36.54    \nframe=   18 fps=0.2 q=35.7 size=    1024KiB time=00:00:00.53 bitrate=15729.3kbits/s speed=0.00549x elapsed=0:01:37.06    \nframe=   18 fps=0.2 q=35.7 size=    1024KiB time=00:00:00.53 bitrate=15729.3kbits/s speed=0.00546x elapsed=0:01:37.60    \nframe=   18 fps=0.2 q=35.7 size=    1024KiB time=00:00:00.53 bitrate=15729.3kbits/s speed=0.00544x elapsed=0:01:38.12    \nframe=   18 fps=0.2 q=35.7 size=    1024KiB time=00:00:00.53 bitrate=15729.3kbits/s speed=0.00541x elapsed=0:01:38.64    \nframe=   18 fps=0.2 q=35.7 size=    1024KiB time=00:00:00.53 bitrate=15729.3kbits/s speed=0.00538x elapsed=0:01:39.18    \nframe=   18 fps=0.2 q=35.7 size=    1024KiB time=00:00:00.53 bitrate=15729.3kbits/s speed=0.00535x elapsed=0:01:39.70    \nframe=   19 fps=0.2 q=35.8 size=    1024KiB time=00:00:00.56 bitrate=14804.0kbits/s speed=0.00565x elapsed=0:01:40.26    \nframe=   19 fps=0.2 q=35.8 size=    1024KiB time=00:00:00.56 bitrate=14804.0kbits/s speed=0.00562x elapsed=0:01:40.80    \nframe=   19 fps=0.2 q=35.8 size=    1024KiB time=00:00:00.56 bitrate=14804.0kbits/s speed=0.00559x elapsed=0:01:41.34    \nframe=   19 fps=0.2 q=35.8 size=    1024KiB time=00:00:00.56 bitrate=14804.0kbits/s speed=0.00556x elapsed=0:01:41.86    \nframe=   19 fps=0.2 q=35.8 size=    1024KiB time=00:00:00.56 bitrate=14804.0kbits/s speed=0.00553x elapsed=0:01:42.40    \nframe=   19 fps=0.2 q=35.8 size=    1024KiB time=00:00:00.56 bitrate=14804.0kbits/s speed=0.00551x elapsed=0:01:42.92    \nframe=   20 fps=0.2 q=35.5 size=    1024KiB time=00:00:00.60 bitrate=13981.6kbits/s speed=0.0058x elapsed=0:01:43.45    \nframe=   20 fps=0.2 q=35.5 size=    1024KiB time=00:00:00.60 bitrate=13981.6kbits/s speed=0.00577x elapsed=0:01:43.97    \nframe=   21 fps=0.2 q=29.1 size=    1024KiB time=00:00:00.63 bitrate=13245.7kbits/s speed=0.00606x elapsed=0:01:44.49    \nframe=   21 fps=0.2 q=29.1 size=    1024KiB time=00:00:00.63 bitrate=13245.7kbits/s speed=0.00603x elapsed=0:01:44.99    \nframe=   21 fps=0.2 q=29.1 size=    1024KiB time=00:00:00.63 bitrate=13245.7kbits/s speed=0.006x elapsed=0:01:45.51    \nframe=   22 fps=0.2 q=32.2 size=    1024KiB time=00:00:00.66 bitrate=12583.4kbits/s speed=0.00629x elapsed=0:01:46.06    \nframe=   22 fps=0.2 q=32.2 size=    1024KiB time=00:00:00.66 bitrate=12583.4kbits/s speed=0.00625x elapsed=0:01:46.62    \nframe=   22 fps=0.2 q=32.2 size=    1024KiB time=00:00:00.66 bitrate=12583.4kbits/s speed=0.00622x elapsed=0:01:47.15    \nframe=   22 fps=0.2 q=32.2 size=    1024KiB time=00:00:00.66 bitrate=12583.4kbits/s speed=0.00619x elapsed=0:01:47.67    \nframe=   22 fps=0.2 q=32.2 size=    1024KiB time=00:00:00.66 bitrate=12583.4kbits/s speed=0.00616x elapsed=0:01:48.19    \nframe=   22 fps=0.2 q=32.2 size=    1024KiB time=00:00:00.66 bitrate=12583.4kbits/s speed=0.00613x elapsed=0:01:48.71    \nframe=   22 fps=0.2 q=32.2 size=    1024KiB time=00:00:00.66 bitrate=12583.4kbits/s speed=0.0061x elapsed=0:01:49.23    \nframe=   23 fps=0.2 q=35.6 size=    1024KiB time=00:00:00.70 bitrate=11984.2kbits/s speed=0.00638x elapsed=0:01:49.74    \nframe=   23 fps=0.2 q=35.6 size=    1024KiB time=00:00:00.70 bitrate=11984.2kbits/s speed=0.00635x elapsed=0:01:50.31    \nframe=   23 fps=0.2 q=35.6 size=    1024KiB time=00:00:00.70 bitrate=11984.2kbits/s speed=0.00632x elapsed=0:01:50.82    \nframe=   23 fps=0.2 q=35.6 size=    1024KiB time=00:00:00.70 bitrate=11984.2kbits/s speed=0.00629x elapsed=0:01:51.35    \nframe=   24 fps=0.2 q=35.4 size=    1024KiB time=00:00:00.73 bitrate=11439.5kbits/s speed=0.00655x elapsed=0:01:51.87    \nframe=   24 fps=0.2 q=35.4 size=    1024KiB time=00:00:00.73 bitrate=11439.5kbits/s speed=0.00652x elapsed=0:01:52.41    \nframe=   24 fps=0.2 q=35.4 size=    1024KiB time=00:00:00.73 bitrate=11439.5kbits/s speed=0.00649x elapsed=0:01:52.94    \nframe=   24 fps=0.2 q=35.4 size=    1024KiB time=00:00:00.73 bitrate=11439.5kbits/s speed=0.00646x elapsed=0:01:53.47    \nframe=   25 fps=0.2 q=29.5 size=    1024KiB time=00:00:00.76 bitrate=10942.1kbits/s speed=0.00673x elapsed=0:01:53.99    \nframe=   25 fps=0.2 q=29.5 size=    1024KiB time=00:00:00.76 bitrate=10942.1kbits/s speed=0.00669x elapsed=0:01:54.52    \nframe=   26 fps=0.2 q=30.1 size=    1280KiB time=00:00:00.80 bitrate=13107.6kbits/s speed=0.00695x elapsed=0:01:55.04    \nframe=   26 fps=0.2 q=30.1 size=    1280KiB time=00:00:00.80 bitrate=13107.6kbits/s speed=0.00692x elapsed=0:01:55.56    \nframe=   26 fps=0.2 q=30.1 size=    1280KiB time=00:00:00.80 bitrate=13107.6kbits/s speed=0.00689x elapsed=0:01:56.08    \nframe=   26 fps=0.2 q=30.1 size=    1280KiB time=00:00:00.80 bitrate=13107.6kbits/s speed=0.00686x elapsed=0:01:56.60    \nframe=   26 fps=0.2 q=30.1 size=    1280KiB time=00:00:00.80 bitrate=13107.6kbits/s speed=0.00683x elapsed=0:01:57.12    \nframe=   27 fps=0.2 q=35.3 size=    1280KiB time=00:00:00.83 bitrate=12583.3kbits/s speed=0.00708x elapsed=0:01:57.65    \nframe=   27 fps=0.2 q=35.3 size=    1280KiB time=00:00:00.83 bitrate=12583.3kbits/s speed=0.00705x elapsed=0:01:58.19    \nframe=   27 fps=0.2 q=35.3 size=    1280KiB time=00:00:00.83 bitrate=12583.3kbits/s speed=0.00702x elapsed=0:01:58.73    \nframe=   27 fps=0.2 q=35.3 size=    1280KiB time=00:00:00.83 bitrate=12583.3kbits/s speed=0.00699x elapsed=0:01:59.25    \nframe=   27 fps=0.2 q=35.3 size=    1280KiB time=00:00:00.83 bitrate=12583.3kbits/s speed=0.00696x elapsed=0:01:59.76    \nframe=   27 fps=0.2 q=35.3 size=    1280KiB time=00:00:00.83 bitrate=12583.3kbits/s speed=0.00693x elapsed=0:02:00.28    \nframe=   27 fps=0.2 q=35.3 size=    1280KiB time=00:00:00.83 bitrate=12583.3kbits/s speed=0.0069x elapsed=0:02:00.80    \nframe=   27 fps=0.2 q=35.3 size=    1280KiB time=00:00:00.83 bitrate=12583.3kbits/s speed=0.00687x elapsed=0:02:01.33    \nframe=   27 fps=0.2 q=35.3 size=    1280KiB time=00:00:00.83 bitrate=12583.3kbits/s speed=0.00684x elapsed=0:02:01.84    \nframe=   28 fps=0.2 q=35.2 size=    1280KiB time=00:00:00.86 bitrate=12099.4kbits/s speed=0.00708x elapsed=0:02:02.38    \nframe=   28 fps=0.2 q=35.2 size=    1280KiB time=00:00:00.86 bitrate=12099.4kbits/s speed=0.00705x elapsed=0:02:02.90    \nframe=   28 fps=0.2 q=35.2 size=    1280KiB time=00:00:00.86 bitrate=12099.4kbits/s speed=0.00702x elapsed=0:02:03.42    \nframe=   28 fps=0.2 q=35.2 size=    1280KiB time=00:00:00.86 bitrate=12099.4kbits/s speed=0.00699x elapsed=0:02:03.94    \nframe=   28 fps=0.2 q=35.2 size=    1280KiB time=00:00:00.86 bitrate=12099.4kbits/s speed=0.00696x elapsed=0:02:04.46    \nframe=   29 fps=0.2 q=35.4 size=    1280KiB time=00:00:00.90 bitrate=11651.2kbits/s speed=0.0072x elapsed=0:02:04.99    \nframe=   29 fps=0.2 q=35.4 size=    1280KiB time=00:00:00.90 bitrate=11651.2kbits/s speed=0.00717x elapsed=0:02:05.52    \nframe=   29 fps=0.2 q=35.4 size=    1280KiB time=00:00:00.90 bitrate=11651.2kbits/s speed=0.00714x elapsed=0:02:06.05    \nframe=   30 fps=0.2 q=29.1 size=    1280KiB time=00:00:00.93 bitrate=11235.1kbits/s speed=0.00737x elapsed=0:02:06.57    \nframe=   30 fps=0.2 q=29.1 size=    1280KiB time=00:00:00.93 bitrate=11235.1kbits/s speed=0.00734x elapsed=0:02:07.10    \nframe=   30 fps=0.2 q=29.1 size=    1280KiB time=00:00:00.93 bitrate=11235.1kbits/s speed=0.00731x elapsed=0:02:07.62    \nframe=   31 fps=0.2 q=32.7 size=    1536KiB time=00:00:00.96 bitrate=13017.2kbits/s speed=0.00754x elapsed=0:02:08.14    \nframe=   31 fps=0.2 q=32.7 size=    1536KiB time=00:00:00.96 bitrate=13017.2kbits/s speed=0.00751x elapsed=0:02:08.66    \nframe=   31 fps=0.2 q=32.7 size=    1536KiB time=00:00:00.96 bitrate=13017.2kbits/s speed=0.00748x elapsed=0:02:09.17    \nframe=   31 fps=0.2 q=32.7 size=    1536KiB time=00:00:00.96 bitrate=13017.2kbits/s speed=0.00745x elapsed=0:02:09.69    \nframe=   31 fps=0.2 q=32.7 size=    1536KiB time=00:00:00.96 bitrate=13017.2kbits/s speed=0.00742x elapsed=0:02:10.21    \nframe=   31 fps=0.2 q=32.7 size=    1536KiB time=00:00:00.96 bitrate=13017.2kbits/s speed=0.00739x elapsed=0:02:10.74    \nframe=   31 fps=0.2 q=32.7 size=    1536KiB time=00:00:00.96 bitrate=13017.2kbits/s speed=0.00736x elapsed=0:02:11.27    \nframe=   31 fps=0.2 q=32.7 size=    1536KiB time=00:00:00.96 bitrate=13017.2kbits/s speed=0.00733x elapsed=0:02:11.81    \nframe=   31 fps=0.2 q=32.7 size=    1536KiB time=00:00:00.96 bitrate=13017.2kbits/s speed=0.0073x elapsed=0:02:12.35    \nframe=   32 fps=0.2 q=35.4 size=    1536KiB time=00:00:01.00 bitrate=12583.3kbits/s speed=0.00753x elapsed=0:02:12.88    \nframe=   32 fps=0.2 q=35.4 size=    1536KiB time=00:00:01.00 bitrate=12583.3kbits/s speed=0.0075x elapsed=0:02:13.40    \nframe=   32 fps=0.2 q=35.4 size=    1536KiB time=00:00:01.00 bitrate=12583.3kbits/s speed=0.00747x elapsed=0:02:13.92    \nframe=   32 fps=0.2 q=35.4 size=    1536KiB time=00:00:01.00 bitrate=12583.3kbits/s speed=0.00744x elapsed=0:02:14.45    \nframe=   32 fps=0.2 q=35.4 size=    1536KiB time=00:00:01.00 bitrate=12583.3kbits/s speed=0.00741x elapsed=0:02:14.97    \nframe=   33 fps=0.2 q=35.5 size=    1536KiB time=00:00:01.03 bitrate=12177.4kbits/s speed=0.00763x elapsed=0:02:15.50    \nframe=   33 fps=0.2 q=35.5 size=    1536KiB time=00:00:01.03 bitrate=12177.4kbits/s speed=0.0076x elapsed=0:02:16.02    \nframe=   33 fps=0.2 q=35.5 size=    1536KiB time=00:00:01.03 bitrate=12177.4kbits/s speed=0.00757x elapsed=0:02:16.55    \nframe=   33 fps=0.2 q=35.5 size=    1536KiB time=00:00:01.03 bitrate=12177.4kbits/s speed=0.00754x elapsed=0:02:17.07    \nframe=   33 fps=0.2 q=35.5 size=    1536KiB time=00:00:01.03 bitrate=12177.4kbits/s speed=0.00751x elapsed=0:02:17.60    \nframe=   34 fps=0.2 q=29.4 size=    1536KiB time=00:00:01.06 bitrate=11796.8kbits/s speed=0.00772x elapsed=0:02:18.13    \nframe=   34 fps=0.2 q=29.4 size=    1536KiB time=00:00:01.06 bitrate=11796.8kbits/s speed=0.00769x elapsed=0:02:18.63    \nframe=   34 fps=0.2 q=29.4 size=    1536KiB time=00:00:01.06 bitrate=11796.8kbits/s speed=0.00767x elapsed=0:02:19.15    \nframe=   35 fps=0.3 q=32.4 size=    1792KiB time=00:00:01.10 bitrate=13345.8kbits/s speed=0.00788x elapsed=0:02:19.67    \nframe=   35 fps=0.2 q=32.4 size=    1792KiB time=00:00:01.10 bitrate=13345.8kbits/s speed=0.00785x elapsed=0:02:20.18    \nframe=   36 fps=0.3 q=35.5 size=    1792KiB time=00:00:01.13 bitrate=12953.3kbits/s speed=0.00805x elapsed=0:02:20.70    \nframe=   36 fps=0.3 q=35.5 size=    1792KiB time=00:00:01.13 bitrate=12953.3kbits/s speed=0.00802x elapsed=0:02:21.25    \nframe=   36 fps=0.3 q=35.5 size=    1792KiB time=00:00:01.13 bitrate=12953.3kbits/s speed=0.00799x elapsed=0:02:21.77    \nframe=   36 fps=0.3 q=35.5 size=    1792KiB time=00:00:01.13 bitrate=12953.3kbits/s speed=0.00796x elapsed=0:02:22.31    \nframe=   36 fps=0.3 q=35.5 size=    1792KiB time=00:00:01.13 bitrate=12953.3kbits/s speed=0.00793x elapsed=0:02:22.88    \nframe=   36 fps=0.3 q=35.5 size=    1792KiB time=00:00:01.13 bitrate=12953.3kbits/s speed=0.0079x elapsed=0:02:23.39    \nframe=   37 fps=0.3 q=35.5 size=    1792KiB time=00:00:01.16 bitrate=12583.2kbits/s speed=0.00811x elapsed=0:02:23.90    \nframe=   37 fps=0.3 q=35.5 size=    1792KiB time=00:00:01.16 bitrate=12583.2kbits/s speed=0.00808x elapsed=0:02:24.43    \nframe=   37 fps=0.3 q=35.5 size=    1792KiB time=00:00:01.16 bitrate=12583.2kbits/s speed=0.00805x elapsed=0:02:24.94    \nframe=   37 fps=0.3 q=35.5 size=    1792KiB time=00:00:01.16 bitrate=12583.2kbits/s speed=0.00802x elapsed=0:02:25.47    \nframe=   38 fps=0.3 q=35.6 size=    1792KiB time=00:00:01.20 bitrate=12233.7kbits/s speed=0.00822x elapsed=0:02:25.99    \nframe=   38 fps=0.3 q=35.6 size=    1792KiB time=00:00:01.20 bitrate=12233.7kbits/s speed=0.00819x elapsed=0:02:26.52    \nframe=   38 fps=0.3 q=35.6 size=    1792KiB time=00:00:01.20 bitrate=12233.7kbits/s speed=0.00816x elapsed=0:02:27.04    \nframe=   38 fps=0.3 q=35.6 size=    1792KiB time=00:00:01.20 bitrate=12233.7kbits/s speed=0.00813x elapsed=0:02:27.56    \nframe=   38 fps=0.3 q=35.6 size=    1792KiB time=00:00:01.20 bitrate=12233.7kbits/s speed=0.0081x elapsed=0:02:28.07    \nframe=   39 fps=0.3 q=29.3 size=    1792KiB time=00:00:01.23 bitrate=11903.0kbits/s speed=0.0083x elapsed=0:02:28.60    \nframe=   39 fps=0.3 q=29.3 size=    1792KiB time=00:00:01.23 bitrate=11903.0kbits/s speed=0.00827x elapsed=0:02:29.10    \nframe=   39 fps=0.3 q=29.3 size=    1792KiB time=00:00:01.23 bitrate=11903.0kbits/s speed=0.00824x elapsed=0:02:29.63    \nframe=   39 fps=0.3 q=29.3 size=    1792KiB time=00:00:01.23 bitrate=11903.0kbits/s speed=0.00821x elapsed=0:02:30.17    \nframe=   39 fps=0.3 q=29.3 size=    1792KiB time=00:00:01.23 bitrate=11903.0kbits/s speed=0.00818x elapsed=0:02:30.69    \nframe=   39 fps=0.3 q=29.3 size=    1792KiB time=00:00:01.23 bitrate=11903.0kbits/s speed=0.00816x elapsed=0:02:31.21    \nframe=   40 fps=0.3 q=32.1 size=    1792KiB time=00:00:01.26 bitrate=11589.8kbits/s speed=0.00835x elapsed=0:02:31.74    \nframe=   40 fps=0.3 q=32.1 size=    1792KiB time=00:00:01.26 bitrate=11589.8kbits/s speed=0.00832x elapsed=0:02:32.26    \nframe=   40 fps=0.3 q=32.1 size=    1792KiB time=00:00:01.26 bitrate=11589.8kbits/s speed=0.00829x elapsed=0:02:32.78    \nframe=   40 fps=0.3 q=32.1 size=    1792KiB time=00:00:01.26 bitrate=11589.8kbits/s speed=0.00826x elapsed=0:02:33.30    \nframe=   41 fps=0.3 q=35.6 size=    2048KiB time=00:00:01.30 bitrate=12905.8kbits/s speed=0.00845x elapsed=0:02:33.81    \nframe=   41 fps=0.3 q=35.6 size=    2048KiB time=00:00:01.30 bitrate=12905.8kbits/s speed=0.00842x elapsed=0:02:34.33    \nframe=   42 fps=0.3 q=29.0 size=    2048KiB time=00:00:01.33 bitrate=12583.2kbits/s speed=0.00861x elapsed=0:02:34.85    \nframe=   42 fps=0.3 q=29.0 size=    2048KiB time=00:00:01.33 bitrate=12583.2kbits/s speed=0.00858x elapsed=0:02:35.37    \nframe=   43 fps=0.3 q=32.6 size=    2048KiB time=00:00:01.36 bitrate=12276.3kbits/s speed=0.00877x elapsed=0:02:35.91    \nframe=   43 fps=0.3 q=32.6 size=    2048KiB time=00:00:01.36 bitrate=12276.3kbits/s speed=0.00874x elapsed=0:02:36.42    \nframe=   43 fps=0.3 q=32.6 size=    2048KiB time=00:00:01.36 bitrate=12276.3kbits/s speed=0.00871x elapsed=0:02:36.97    \nframe=   43 fps=0.3 q=32.6 size=    2048KiB time=00:00:01.36 bitrate=12276.3kbits/s speed=0.00868x elapsed=0:02:37.49    \nframe=   43 fps=0.3 q=32.6 size=    2048KiB time=00:00:01.36 bitrate=12276.3kbits/s speed=0.00865x elapsed=0:02:38.06    \nframe=   43 fps=0.3 q=32.6 size=    2048KiB time=00:00:01.36 bitrate=12276.3kbits/s speed=0.00862x elapsed=0:02:38.59    \nframe=   43 fps=0.3 q=32.6 size=    2048KiB time=00:00:01.36 bitrate=12276.3kbits/s speed=0.00859x elapsed=0:02:39.12    \nframe=   43 fps=0.3 q=32.6 size=    2048KiB time=00:00:01.36 bitrate=12276.3kbits/s speed=0.00856x elapsed=0:02:39.70    \nframe=   43 fps=0.3 q=32.6 size=    2048KiB time=00:00:01.36 bitrate=12276.3kbits/s speed=0.00853x elapsed=0:02:40.25    \nframe=   43 fps=0.3 q=32.6 size=    2048KiB time=00:00:01.36 bitrate=12276.3kbits/s speed=0.0085x elapsed=0:02:40.86    \nframe=   43 fps=0.3 q=32.6 size=    2048KiB time=00:00:01.36 bitrate=12276.3kbits/s speed=0.00847x elapsed=0:02:41.39    \nframe=   43 fps=0.3 q=32.6 size=    2048KiB time=00:00:01.36 bitrate=12276.3kbits/s speed=0.00844x elapsed=0:02:41.93    \nframe=   43 fps=0.3 q=32.6 size=    2048KiB time=00:00:01.36 bitrate=12276.3kbits/s speed=0.00841x elapsed=0:02:42.45    \nframe=   43 fps=0.3 q=32.6 size=    2048KiB time=00:00:01.36 bitrate=12276.3kbits/s speed=0.00838x elapsed=0:02:42.99    \nframe=   43 fps=0.3 q=32.6 size=    2048KiB time=00:00:01.36 bitrate=12276.3kbits/s speed=0.00836x elapsed=0:02:43.52    \nframe=   43 fps=0.3 q=32.6 size=    2048KiB time=00:00:01.36 bitrate=12276.3kbits/s speed=0.00833x elapsed=0:02:44.06    \nframe=   44 fps=0.3 q=35.3 size=    2048KiB time=00:00:01.40 bitrate=11984.0kbits/s speed=0.00851x elapsed=0:02:44.57    \nframe=   44 fps=0.3 q=35.3 size=    2048KiB time=00:00:01.40 bitrate=11984.0kbits/s speed=0.00848x elapsed=0:02:45.11    \nframe=   44 fps=0.3 q=35.3 size=    2048KiB time=00:00:01.40 bitrate=11984.0kbits/s speed=0.00845x elapsed=0:02:45.66    \nframe=   44 fps=0.3 q=35.3 size=    2048KiB time=00:00:01.40 bitrate=11984.0kbits/s speed=0.00842x elapsed=0:02:46.17    \nframe=   44 fps=0.3 q=35.3 size=    2048KiB time=00:00:01.40 bitrate=11984.0kbits/s speed=0.0084x elapsed=0:02:46.71    \nframe=   45 fps=0.3 q=35.4 size=    2048KiB time=00:00:01.43 bitrate=11705.3kbits/s speed=0.00857x elapsed=0:02:47.25    \nframe=   45 fps=0.3 q=35.4 size=    2048KiB time=00:00:01.43 bitrate=11705.3kbits/s speed=0.00854x elapsed=0:02:47.76    \nframe=   45 fps=0.3 q=35.4 size=    2048KiB time=00:00:01.43 bitrate=11705.3kbits/s speed=0.00852x elapsed=0:02:48.28    \nframe=   45 fps=0.3 q=35.4 size=    2048KiB time=00:00:01.43 bitrate=11705.3kbits/s speed=0.00849x elapsed=0:02:48.79    \nframe=   46 fps=0.3 q=29.7 size=    2048KiB time=00:00:01.46 bitrate=11439.2kbits/s speed=0.00866x elapsed=0:02:49.33    \nframe=   46 fps=0.3 q=29.7 size=    2048KiB time=00:00:01.46 bitrate=11439.2kbits/s speed=0.00863x elapsed=0:02:49.86    \nframe=   46 fps=0.3 q=29.7 size=    2048KiB time=00:00:01.46 bitrate=11439.2kbits/s speed=0.00861x elapsed=0:02:50.40    \nframe=   46 fps=0.3 q=29.7 size=    2048KiB time=00:00:01.46 bitrate=11439.2kbits/s speed=0.00858x elapsed=0:02:50.94    \nframe=   46 fps=0.3 q=29.7 size=    2048KiB time=00:00:01.46 bitrate=11439.2kbits/s speed=0.00855x elapsed=0:02:51.46    \nframe=   47 fps=0.3 q=34.1 size=    2304KiB time=00:00:01.50 bitrate=12583.1kbits/s speed=0.00872x elapsed=0:02:51.98    \nframe=   47 fps=0.3 q=34.1 size=    2304KiB time=00:00:01.50 bitrate=12583.1kbits/s speed=0.0087x elapsed=0:02:52.50    \nframe=   47 fps=0.3 q=34.1 size=    2304KiB time=00:00:01.50 bitrate=12583.1kbits/s speed=0.00867x elapsed=0:02:53.01    \nframe=   47 fps=0.3 q=34.1 size=    2304KiB time=00:00:01.50 bitrate=12583.1kbits/s speed=0.00864x elapsed=0:02:53.54    \nframe=   47 fps=0.3 q=34.1 size=    2304KiB time=00:00:01.50 bitrate=12583.1kbits/s speed=0.00862x elapsed=0:02:54.07    \nframe=   48 fps=0.3 q=35.8 size=    2304KiB time=00:00:01.53 bitrate=12309.6kbits/s speed=0.00878x elapsed=0:02:54.61    \nframe=   48 fps=0.3 q=35.8 size=    2304KiB time=00:00:01.53 bitrate=12309.6kbits/s speed=0.00875x elapsed=0:02:55.15    \nframe=   48 fps=0.3 q=35.8 size=    2304KiB time=00:00:01.53 bitrate=12309.6kbits/s speed=0.00873x elapsed=0:02:55.68    \nframe=   48 fps=0.3 q=35.8 size=    2304KiB time=00:00:01.53 bitrate=12309.6kbits/s speed=0.0087x elapsed=0:02:56.23    \nframe=   48 fps=0.3 q=35.8 size=    2304KiB time=00:00:01.53 bitrate=12309.6kbits/s speed=0.00867x elapsed=0:02:56.75    \nframe=   48 fps=0.3 q=35.8 size=    2304KiB time=00:00:01.53 bitrate=12309.6kbits/s speed=0.00865x elapsed=0:02:57.27    \nframe=   48 fps=0.3 q=35.8 size=    2304KiB time=00:00:01.53 bitrate=12309.6kbits/s speed=0.00862x elapsed=0:02:57.83    \nframe=   48 fps=0.3 q=35.8 size=    2304KiB time=00:00:01.53 bitrate=12309.6kbits/s speed=0.0086x elapsed=0:02:58.36    \nframe=   48 fps=0.3 q=35.8 size=    2304KiB time=00:00:01.53 bitrate=12309.6kbits/s speed=0.00857x elapsed=0:02:58.87    \nframe=   49 fps=0.3 q=35.3 size=    2304KiB time=00:00:01.56 bitrate=12047.7kbits/s speed=0.00873x elapsed=0:02:59.41    \nframe=   49 fps=0.3 q=35.3 size=    2304KiB time=00:00:01.56 bitrate=12047.7kbits/s speed=0.00871x elapsed=0:02:59.93    \nframe=   49 fps=0.3 q=35.3 size=    2304KiB time=00:00:01.56 bitrate=12047.7kbits/s speed=0.00868x elapsed=0:03:00.45    \nframe=   49 fps=0.3 q=35.3 size=    2304KiB time=00:00:01.56 bitrate=12047.7kbits/s speed=0.00866x elapsed=0:03:00.98    \nframe=   50 fps=0.3 q=35.5 size=    2304KiB time=00:00:01.60 bitrate=11796.7kbits/s speed=0.00881x elapsed=0:03:01.53    \nframe=   50 fps=0.3 q=35.5 size=    2304KiB time=00:00:01.60 bitrate=11796.7kbits/s speed=0.00879x elapsed=0:03:02.08    \nframe=   50 fps=0.3 q=35.5 size=    2304KiB time=00:00:01.60 bitrate=11796.7kbits/s speed=0.00876x elapsed=0:03:02.63    \nframe=   50 fps=0.3 q=35.5 size=    2304KiB time=00:00:01.60 bitrate=11796.7kbits/s speed=0.00874x elapsed=0:03:03.15    \nframe=   50 fps=0.3 q=35.5 size=    2304KiB time=00:00:01.60 bitrate=11796.7kbits/s speed=0.00871x elapsed=0:03:03.68    \nframe=   51 fps=0.3 q=29.4 size=    2304KiB time=00:00:01.63 bitrate=11556.0kbits/s speed=0.00887x elapsed=0:03:04.20    \nframe=   51 fps=0.3 q=29.4 size=    2304KiB time=00:00:01.63 bitrate=11556.0kbits/s speed=0.00884x elapsed=0:03:04.74    \nframe=   51 fps=0.3 q=29.4 size=    2304KiB time=00:00:01.63 bitrate=11556.0kbits/s speed=0.00882x elapsed=0:03:05.28    \nframe=   51 fps=0.3 q=29.4 size=    2304KiB time=00:00:01.63 bitrate=11556.0kbits/s speed=0.00879x elapsed=0:03:05.79    \nframe=   51 fps=0.3 q=29.4 size=    2304KiB time=00:00:01.63 bitrate=11556.0kbits/s speed=0.00877x elapsed=0:03:06.30    \nframe=   51 fps=0.3 q=29.4 size=    2304KiB time=00:00:01.63 bitrate=11556.0kbits/s speed=0.00874x elapsed=0:03:06.85    \nframe=   51 fps=0.3 q=29.4 size=    2304KiB time=00:00:01.63 bitrate=11556.0kbits/s speed=0.00872x elapsed=0:03:07.39    \nframe=   52 fps=0.3 q=32.7 size=    2560KiB time=00:00:01.66 bitrate=12583.1kbits/s speed=0.00887x elapsed=0:03:07.94    \nframe=   52 fps=0.3 q=32.7 size=    2560KiB time=00:00:01.66 bitrate=12583.1kbits/s speed=0.00884x elapsed=0:03:08.44    \nframe=   52 fps=0.3 q=32.7 size=    2560KiB time=00:00:01.66 bitrate=12583.1kbits/s speed=0.00882x elapsed=0:03:08.97    \nframe=   53 fps=0.3 q=35.5 size=    2560KiB time=00:00:01.70 bitrate=12336.4kbits/s speed=0.00897x elapsed=0:03:09.48    \nframe=   53 fps=0.3 q=35.5 size=    2560KiB time=00:00:01.70 bitrate=12336.4kbits/s speed=0.00894x elapsed=0:03:10.11    \nframe=   53 fps=0.3 q=35.5 size=    2560KiB time=00:00:01.70 bitrate=12336.4kbits/s speed=0.00892x elapsed=0:03:10.64    \nframe=   53 fps=0.3 q=35.5 size=    2560KiB time=00:00:01.70 bitrate=12336.4kbits/s speed=0.00889x elapsed=0:03:11.16    \nframe=   54 fps=0.3 q=29.4 size=    2560KiB time=00:00:01.73 bitrate=12099.2kbits/s speed=0.00904x elapsed=0:03:11.69    \nframe=   54 fps=0.3 q=29.4 size=    2560KiB time=00:00:01.73 bitrate=12099.2kbits/s speed=0.00902x elapsed=0:03:12.22    \nframe=   54 fps=0.3 q=29.4 size=    2560KiB time=00:00:01.73 bitrate=12099.2kbits/s speed=0.00899x elapsed=0:03:12.80    \nframe=   54 fps=0.3 q=29.4 size=    2560KiB time=00:00:01.73 bitrate=12099.2kbits/s speed=0.00896x elapsed=0:03:13.36    \nframe=   54 fps=0.3 q=29.4 size=    2560KiB time=00:00:01.73 bitrate=12099.2kbits/s speed=0.00894x elapsed=0:03:13.90    \nframe=   54 fps=0.3 q=29.4 size=    2560KiB time=00:00:01.73 bitrate=12099.2kbits/s speed=0.00891x elapsed=0:03:14.43    \nframe=   54 fps=0.3 q=29.4 size=    2560KiB time=00:00:01.73 bitrate=12099.2kbits/s speed=0.00889x elapsed=0:03:14.95    \nframe=   55 fps=0.3 q=34.0 size=    2560KiB time=00:00:01.76 bitrate=11870.9kbits/s speed=0.00904x elapsed=0:03:15.47    \nframe=   55 fps=0.3 q=34.0 size=    2560KiB time=00:00:01.76 bitrate=11870.9kbits/s speed=0.00901x elapsed=0:03:15.99    \nframe=   55 fps=0.3 q=34.0 size=    2560KiB time=00:00:01.76 bitrate=11870.9kbits/s speed=0.00899x elapsed=0:03:16.52    \nframe=   55 fps=0.3 q=34.0 size=    2560KiB time=00:00:01.76 bitrate=11870.9kbits/s speed=0.00897x elapsed=0:03:17.03    \nframe=   56 fps=0.3 q=35.3 size=    2560KiB time=00:00:01.80 bitrate=11651.0kbits/s speed=0.00911x elapsed=0:03:17.56    \nframe=   56 fps=0.3 q=35.3 size=    2560KiB time=00:00:01.80 bitrate=11651.0kbits/s speed=0.00909x elapsed=0:03:18.08    \nframe=   56 fps=0.3 q=35.3 size=    2560KiB time=00:00:01.80 bitrate=11651.0kbits/s speed=0.00906x elapsed=0:03:18.58    \nframe=   56 fps=0.3 q=35.3 size=    2560KiB time=00:00:01.80 bitrate=11651.0kbits/s speed=0.00904x elapsed=0:03:19.12    \nframe=   57 fps=0.3 q=29.4 size=    2560KiB time=00:00:01.83 bitrate=11439.2kbits/s speed=0.00918x elapsed=0:03:19.66    \nframe=   57 fps=0.3 q=29.4 size=    2560KiB time=00:00:01.83 bitrate=11439.2kbits/s speed=0.00916x elapsed=0:03:20.18    \nframe=   58 fps=0.3 q=32.6 size=    2816KiB time=00:00:01.86 bitrate=12358.4kbits/s speed=0.0093x elapsed=0:03:20.70    \nframe=   58 fps=0.3 q=32.6 size=    2816KiB time=00:00:01.86 bitrate=12358.4kbits/s speed=0.00928x elapsed=0:03:21.23    \nframe=   58 fps=0.3 q=32.6 size=    2816KiB time=00:00:01.86 bitrate=12358.4kbits/s speed=0.00925x elapsed=0:03:21.76    \nframe=   58 fps=0.3 q=32.6 size=    2816KiB time=00:00:01.86 bitrate=12358.4kbits/s speed=0.00923x elapsed=0:03:22.28    \nframe=   58 fps=0.3 q=32.6 size=    2816KiB time=00:00:01.86 bitrate=12358.4kbits/s speed=0.0092x elapsed=0:03:22.81    \nframe=   58 fps=0.3 q=32.6 size=    2816KiB time=00:00:01.86 bitrate=12358.4kbits/s speed=0.00918x elapsed=0:03:23.33    \nframe=   59 fps=0.3 q=35.3 size=    2816KiB time=00:00:01.90 bitrate=12141.6kbits/s speed=0.00932x elapsed=0:03:23.84    \nframe=   59 fps=0.3 q=35.3 size=    2816KiB time=00:00:01.90 bitrate=12141.6kbits/s speed=0.0093x elapsed=0:03:24.36    \nframe=   59 fps=0.3 q=35.3 size=    2816KiB time=00:00:01.90 bitrate=12141.6kbits/s speed=0.00927x elapsed=0:03:24.88    \nframe=   59 fps=0.3 q=35.3 size=    2816KiB time=00:00:01.90 bitrate=12141.6kbits/s speed=0.00925x elapsed=0:03:25.39    \nframe=   60 fps=0.3 q=35.4 size=    2816KiB time=00:00:01.93 bitrate=11932.3kbits/s speed=0.00939x elapsed=0:03:25.93    \nframe=   60 fps=0.3 q=35.4 size=    2816KiB time=00:00:01.93 bitrate=11932.3kbits/s speed=0.00936x elapsed=0:03:26.45    \nframe=   60 fps=0.3 q=35.4 size=    2816KiB time=00:00:01.93 bitrate=11932.3kbits/s speed=0.00934x elapsed=0:03:26.98    \nframe=   61 fps=0.3 q=30.0 size=    2816KiB time=00:00:01.96 bitrate=11730.0kbits/s speed=0.00948x elapsed=0:03:27.49    \nframe=   61 fps=0.3 q=30.0 size=    2816KiB time=00:00:01.96 bitrate=11730.0kbits/s speed=0.00945x elapsed=0:03:28.01    \nframe=   62 fps=0.3 q=32.3 size=    3072KiB time=00:00:02.00 bitrate=12583.1kbits/s speed=0.00959x elapsed=0:03:28.55    \nframe=   62 fps=0.3 q=32.3 size=    3072KiB time=00:00:02.00 bitrate=12583.1kbits/s speed=0.00957x elapsed=0:03:29.06    \nframe=   62 fps=0.3 q=32.3 size=    3072KiB time=00:00:02.00 bitrate=12583.1kbits/s speed=0.00954x elapsed=0:03:29.59    \nframe=   63 fps=0.3 q=35.6 size=    3072KiB time=00:00:02.03 bitrate=12376.8kbits/s speed=0.00968x elapsed=0:03:30.16    \nframe=   63 fps=0.3 q=35.6 size=    3072KiB time=00:00:02.03 bitrate=12376.8kbits/s speed=0.00965x elapsed=0:03:30.68    \nframe=   63 fps=0.3 q=35.6 size=    3072KiB time=00:00:02.03 bitrate=12376.8kbits/s speed=0.00963x elapsed=0:03:31.24    \nframe=   63 fps=0.3 q=35.6 size=    3072KiB time=00:00:02.03 bitrate=12376.8kbits/s speed=0.0096x elapsed=0:03:31.78    \nframe=   63 fps=0.3 q=35.6 size=    3072KiB time=00:00:02.03 bitrate=12376.8kbits/s speed=0.00958x elapsed=0:03:32.31    \nframe=   63 fps=0.3 q=35.6 size=    3072KiB time=00:00:02.03 bitrate=12376.8kbits/s speed=0.00955x elapsed=0:03:32.84    \nframe=   63 fps=0.3 q=35.6 size=    3072KiB time=00:00:02.03 bitrate=12376.8kbits/s speed=0.00953x elapsed=0:03:33.40    \nframe=   63 fps=0.3 q=35.6 size=    3072KiB time=00:00:02.03 bitrate=12376.8kbits/s speed=0.0095x elapsed=0:03:33.93    \nframe=   63 fps=0.3 q=35.6 size=    3072KiB time=00:00:02.03 bitrate=12376.8kbits/s speed=0.00948x elapsed=0:03:34.48    \nframe=   64 fps=0.3 q=35.8 size=    3072KiB time=00:00:02.06 bitrate=12177.2kbits/s speed=0.00961x elapsed=0:03:35.00    \nframe=   64 fps=0.3 q=35.8 size=    3072KiB time=00:00:02.06 bitrate=12177.2kbits/s speed=0.00959x elapsed=0:03:35.54    \nframe=   64 fps=0.3 q=35.8 size=    3072KiB time=00:00:02.06 bitrate=12177.2kbits/s speed=0.00956x elapsed=0:03:36.09    \nframe=   64 fps=0.3 q=35.8 size=    3072KiB time=00:00:02.06 bitrate=12177.2kbits/s speed=0.00954x elapsed=0:03:36.61    \nframe=   64 fps=0.3 q=35.8 size=    3072KiB time=00:00:02.06 bitrate=12177.2kbits/s speed=0.00952x elapsed=0:03:37.12    \nframe=   64 fps=0.3 q=35.8 size=    3072KiB time=00:00:02.06 bitrate=12177.2kbits/s speed=0.0095x elapsed=0:03:37.64    \nframe=   65 fps=0.3 q=35.3 size=    3072KiB time=00:00:02.10 bitrate=11983.9kbits/s speed=0.00963x elapsed=0:03:38.15    \nframe=   65 fps=0.3 q=35.3 size=    3072KiB time=00:00:02.10 bitrate=11983.9kbits/s speed=0.0096x elapsed=0:03:38.68    \nframe=   65 fps=0.3 q=35.3 size=    3072KiB time=00:00:02.10 bitrate=11983.9kbits/s speed=0.00958x elapsed=0:03:39.23    \nframe=   65 fps=0.3 q=35.3 size=    3072KiB time=00:00:02.10 bitrate=11983.9kbits/s speed=0.00956x elapsed=0:03:39.74    \nframe=   66 fps=0.3 q=29.5 size=    3072KiB time=00:00:02.13 bitrate=11796.6kbits/s speed=0.00969x elapsed=0:03:40.27    \nframe=   66 fps=0.3 q=29.5 size=    3072KiB time=00:00:02.13 bitrate=11796.6kbits/s speed=0.00966x elapsed=0:03:40.78    \nframe=   67 fps=0.3 q=29.9 size=    3072KiB time=00:00:02.16 bitrate=11615.2kbits/s speed=0.00979x elapsed=0:03:41.29    \nframe=   68 fps=0.3 q=33.9 size=    3328KiB time=00:00:02.20 bitrate=12392.4kbits/s speed=0.00992x elapsed=0:03:41.81    \nframe=   69 fps=0.3 q=35.2 size=    3328KiB time=00:00:02.23 bitrate=12207.5kbits/s speed=0.01x elapsed=0:03:42.32    \nframe=   69 fps=0.3 q=35.2 size=    3328KiB time=00:00:02.23 bitrate=12207.5kbits/s speed=0.01x elapsed=0:03:42.84    \nframe=   69 fps=0.3 q=35.2 size=    3328KiB time=00:00:02.23 bitrate=12207.5kbits/s speed=0.01x elapsed=0:03:43.36    \nframe=   70 fps=0.3 q=35.5 size=    3328KiB time=00:00:02.26 bitrate=12027.9kbits/s speed=0.0101x elapsed=0:03:43.87    \nframe=   70 fps=0.3 q=35.5 size=    3328KiB time=00:00:02.26 bitrate=12027.9kbits/s speed=0.0101x elapsed=0:03:44.39    \nframe=   70 fps=0.3 q=35.5 size=    3328KiB time=00:00:02.26 bitrate=12027.9kbits/s speed=0.0101x elapsed=0:03:44.90    \nframe=   71 fps=0.3 q=35.5 size=    3328KiB time=00:00:02.30 bitrate=11853.6kbits/s speed=0.0102x elapsed=0:03:45.42    \nframe=   72 fps=0.3 q=29.6 size=    3328KiB time=00:00:02.33 bitrate=11684.3kbits/s speed=0.0103x elapsed=0:03:45.94    \nframe=   72 fps=0.3 q=29.6 size=    3328KiB time=00:00:02.33 bitrate=11684.3kbits/s speed=0.0103x elapsed=0:03:46.45    \nframe=   73 fps=0.3 q=32.8 size=    3584KiB time=00:00:02.36 bitrate=12405.8kbits/s speed=0.0104x elapsed=0:03:46.97    \nframe=   73 fps=0.3 q=32.8 size=    3584KiB time=00:00:02.36 bitrate=12405.8kbits/s speed=0.0104x elapsed=0:03:47.47    \nframe=   74 fps=0.3 q=35.4 size=    3584KiB time=00:00:02.40 bitrate=12233.5kbits/s speed=0.0105x elapsed=0:03:48.00    \nframe=   74 fps=0.3 q=35.4 size=    3584KiB time=00:00:02.40 bitrate=12233.5kbits/s speed=0.0105x elapsed=0:03:48.52    \nframe=   75 fps=0.3 q=35.6 size=    3584KiB time=00:00:02.43 bitrate=12066.0kbits/s speed=0.0106x elapsed=0:03:49.03    \nframe=   75 fps=0.3 q=35.6 size=    3584KiB time=00:00:02.43 bitrate=12066.0kbits/s speed=0.0106x elapsed=0:03:49.55    \nframe=   75 fps=0.3 q=35.6 size=    3584KiB time=00:00:02.43 bitrate=12066.0kbits/s speed=0.0106x elapsed=0:03:50.05    \nframe=   76 fps=0.3 q=29.8 size=    3584KiB time=00:00:02.46 bitrate=11902.9kbits/s speed=0.0107x elapsed=0:03:50.58    \nframe=   76 fps=0.3 q=29.8 size=    3584KiB time=00:00:02.46 bitrate=11902.9kbits/s speed=0.0107x elapsed=0:03:51.09    \nframe=   77 fps=0.3 q=32.6 size=    3584KiB time=00:00:02.50 bitrate=11744.2kbits/s speed=0.0108x elapsed=0:03:51.61    \nframe=   78 fps=0.3 q=35.6 size=    3840KiB time=00:00:02.53 bitrate=12417.5kbits/s speed=0.0109x elapsed=0:03:52.13    \nframe=   78 fps=0.3 q=35.6 size=    3840KiB time=00:00:02.53 bitrate=12417.5kbits/s speed=0.0109x elapsed=0:03:52.63    \nframe=   79 fps=0.3 q=35.7 size=    3840KiB time=00:00:02.56 bitrate=12256.2kbits/s speed=0.011x elapsed=0:03:53.16    \nframe=   79 fps=0.3 q=35.7 size=    3840KiB time=00:00:02.56 bitrate=12256.2kbits/s speed=0.011x elapsed=0:03:53.68    \nframe=   80 fps=0.3 q=35.9 size=    3840KiB time=00:00:02.60 bitrate=12099.1kbits/s speed=0.0111x elapsed=0:03:54.20    \nframe=   81 fps=0.3 q=29.7 size=    3840KiB time=00:00:02.63 bitrate=11945.9kbits/s speed=0.0112x elapsed=0:03:54.72    \nframe=   81 fps=0.3 q=29.7 size=    3840KiB time=00:00:02.63 bitrate=11945.9kbits/s speed=0.0112x elapsed=0:03:55.23    \nframe=   82 fps=0.3 q=33.0 size=    3840KiB time=00:00:02.66 bitrate=11796.6kbits/s speed=0.0113x elapsed=0:03:55.75    \nframe=   82 fps=0.3 q=33.0 size=    3840KiB time=00:00:02.66 bitrate=11796.6kbits/s speed=0.0113x elapsed=0:03:56.26    \nframe=   82 fps=0.3 q=33.0 size=    3840KiB time=00:00:02.66 bitrate=11796.6kbits/s speed=0.0113x elapsed=0:03:56.78    \nframe=   83 fps=0.3 q=35.7 size=    3840KiB time=00:00:02.70 bitrate=11651.0kbits/s speed=0.0114x elapsed=0:03:57.29    \nframe=   83 fps=0.3 q=35.7 size=    3840KiB time=00:00:02.70 bitrate=11651.0kbits/s speed=0.0114x elapsed=0:03:57.81    \nframe=   83 fps=0.3 q=35.7 size=    3840KiB time=00:00:02.70 bitrate=11651.0kbits/s speed=0.0113x elapsed=0:03:58.33    \nframe=   84 fps=0.4 q=35.8 size=    3840KiB time=00:00:02.73 bitrate=11508.9kbits/s speed=0.0114x elapsed=0:03:58.84    \nframe=   85 fps=0.4 q=30.1 size=    4096KiB time=00:00:02.76 bitrate=12128.2kbits/s speed=0.0116x elapsed=0:03:59.36    \nframe=   85 fps=0.4 q=30.1 size=    4096KiB time=00:00:02.76 bitrate=12128.2kbits/s speed=0.0115x elapsed=0:03:59.87    \nframe=   86 fps=0.4 q=30.7 size=    4096KiB time=00:00:02.80 bitrate=11983.9kbits/s speed=0.0116x elapsed=0:04:00.39    \nframe=   86 fps=0.4 q=30.7 size=    4096KiB time=00:00:02.80 bitrate=11983.9kbits/s speed=0.0116x elapsed=0:04:00.91    \nframe=   87 fps=0.4 q=35.6 size=    4096KiB time=00:00:02.83 bitrate=11842.9kbits/s speed=0.0117x elapsed=0:04:01.42    \nframe=   87 fps=0.4 q=35.6 size=    4096KiB time=00:00:02.83 bitrate=11842.9kbits/s speed=0.0117x elapsed=0:04:01.94    \nframe=   88 fps=0.4 q=35.8 size=    4096KiB time=00:00:02.86 bitrate=11705.2kbits/s speed=0.0118x elapsed=0:04:02.45    \nframe=   88 fps=0.4 q=35.8 size=    4096KiB time=00:00:02.86 bitrate=11705.2kbits/s speed=0.0118x elapsed=0:04:02.97    \nframe=   88 fps=0.4 q=35.8 size=    4096KiB time=00:00:02.86 bitrate=11705.2kbits/s speed=0.0118x elapsed=0:04:03.47    \nframe=   89 fps=0.4 q=35.9 size=    4352KiB time=00:00:02.90 bitrate=12293.8kbits/s speed=0.0119x elapsed=0:04:04.00    \nframe=   90 fps=0.4 q=29.7 size=    4352KiB time=00:00:02.93 bitrate=12154.1kbits/s speed=0.012x elapsed=0:04:04.52    \nframe=   90 fps=0.4 q=29.7 size=    4352KiB time=00:00:02.93 bitrate=12154.1kbits/s speed=0.012x elapsed=0:04:05.03    \nframe=   91 fps=0.4 q=33.1 size=    4352KiB time=00:00:02.96 bitrate=12017.5kbits/s speed=0.0121x elapsed=0:04:05.55    \nframe=   91 fps=0.4 q=33.1 size=    4352KiB time=00:00:02.96 bitrate=12017.5kbits/s speed=0.0121x elapsed=0:04:06.06    \nframe=   91 fps=0.4 q=33.1 size=    4352KiB time=00:00:02.96 bitrate=12017.5kbits/s speed=0.012x elapsed=0:04:06.58    \nframe=   92 fps=0.4 q=35.8 size=    4352KiB time=00:00:03.00 bitrate=11884.0kbits/s speed=0.0121x elapsed=0:04:07.10    \nframe=   93 fps=0.4 q=35.9 size=    4352KiB time=00:00:03.03 bitrate=11753.4kbits/s speed=0.0123x elapsed=0:04:07.60    \nframe=   93 fps=0.4 q=35.9 size=    4352KiB time=00:00:03.03 bitrate=11753.4kbits/s speed=0.0122x elapsed=0:04:08.12    \nframe=   94 fps=0.4 q=30.0 size=    4352KiB time=00:00:03.06 bitrate=11625.6kbits/s speed=0.0123x elapsed=0:04:08.63    \nframe=   94 fps=0.4 q=30.0 size=    4352KiB time=00:00:03.06 bitrate=11625.6kbits/s speed=0.0123x elapsed=0:04:09.15    \nframe=   94 fps=0.4 q=30.0 size=    4352KiB time=00:00:03.06 bitrate=11625.6kbits/s speed=0.0123x elapsed=0:04:09.67    \nframe=   95 fps=0.4 q=32.9 size=    4608KiB time=00:00:03.10 bitrate=12177.1kbits/s speed=0.0124x elapsed=0:04:10.18    \nframe=   96 fps=0.4 q=35.7 size=    4608KiB time=00:00:03.13 bitrate=12047.6kbits/s speed=0.0125x elapsed=0:04:10.70    \nframe=   96 fps=0.4 q=35.7 size=    4608KiB time=00:00:03.13 bitrate=12047.6kbits/s speed=0.0125x elapsed=0:04:11.21    \nframe=   96 fps=0.4 q=35.7 size=    4608KiB time=00:00:03.13 bitrate=12047.6kbits/s speed=0.0124x elapsed=0:04:11.73    \nframe=   97 fps=0.4 q=35.8 size=    4608KiB time=00:00:03.16 bitrate=11920.8kbits/s speed=0.0126x elapsed=0:04:12.25    \nframe=   97 fps=0.4 q=35.8 size=    4608KiB time=00:00:03.16 bitrate=11920.8kbits/s speed=0.0125x elapsed=0:04:12.76    \nframe=   98 fps=0.4 q=35.9 size=    4608KiB time=00:00:03.20 bitrate=11796.6kbits/s speed=0.0126x elapsed=0:04:13.28    \nframe=   98 fps=0.4 q=35.9 size=    4608KiB time=00:00:03.20 bitrate=11796.6kbits/s speed=0.0126x elapsed=0:04:13.79    \nframe=   99 fps=0.4 q=29.8 size=    4608KiB time=00:00:03.23 bitrate=11675.0kbits/s speed=0.0127x elapsed=0:04:14.31    \nframe=   99 fps=0.4 q=29.8 size=    4608KiB time=00:00:03.23 bitrate=11675.0kbits/s speed=0.0127x elapsed=0:04:14.82    \nframe=  100 fps=0.4 q=33.1 size=    4864KiB time=00:00:03.26 bitrate=12197.8kbits/s speed=0.0128x elapsed=0:04:15.34    \nframe=  100 fps=0.4 q=33.1 size=    4864KiB time=00:00:03.26 bitrate=12197.8kbits/s speed=0.0128x elapsed=0:04:15.86    \nframe=  100 fps=0.4 q=33.1 size=    4864KiB time=00:00:03.26 bitrate=12197.8kbits/s speed=0.0127x elapsed=0:04:16.37    \nframe=  101 fps=0.4 q=35.6 size=    4864KiB time=00:00:03.30 bitrate=12074.6kbits/s speed=0.0128x elapsed=0:04:16.89    \nframe=  101 fps=0.4 q=35.6 size=    4864KiB time=00:00:03.30 bitrate=12074.6kbits/s speed=0.0128x elapsed=0:04:17.41    \nframe=  101 fps=0.4 q=35.6 size=    4864KiB time=00:00:03.30 bitrate=12074.6kbits/s speed=0.0128x elapsed=0:04:17.92    \nframe=  102 fps=0.4 q=35.7 size=    4864KiB time=00:00:03.33 bitrate=11953.9kbits/s speed=0.0129x elapsed=0:04:18.44    \nframe=  103 fps=0.4 q=29.8 size=    4864KiB time=00:00:03.36 bitrate=11835.5kbits/s speed=0.013x elapsed=0:04:18.94    \nframe=  103 fps=0.4 q=29.8 size=    4864KiB time=00:00:03.36 bitrate=11835.5kbits/s speed=0.013x elapsed=0:04:19.47    \nframe=  103 fps=0.4 q=29.8 size=    4864KiB time=00:00:03.36 bitrate=11835.5kbits/s speed=0.0129x elapsed=0:04:19.99    \nframe=  104 fps=0.4 q=32.7 size=    5120KiB time=00:00:03.40 bitrate=12336.3kbits/s speed=0.0131x elapsed=0:04:20.49    \nframe=  105 fps=0.4 q=35.5 size=    5120KiB time=00:00:03.43 bitrate=12216.5kbits/s speed=0.0132x elapsed=0:04:21.01    \nframe=  105 fps=0.4 q=35.5 size=    5120KiB time=00:00:03.43 bitrate=12216.5kbits/s speed=0.0131x elapsed=0:04:21.53    \nframe=  105 fps=0.4 q=35.5 size=    5120KiB time=00:00:03.43 bitrate=12216.5kbits/s speed=0.0131x elapsed=0:04:22.04    \nframe=  106 fps=0.4 q=35.8 size=    5120KiB time=00:00:03.46 bitrate=12099.1kbits/s speed=0.0132x elapsed=0:04:22.56    \nframe=  106 fps=0.4 q=35.8 size=    5120KiB time=00:00:03.46 bitrate=12099.1kbits/s speed=0.0132x elapsed=0:04:23.08    \nframe=  107 fps=0.4 q=35.8 size=    5120KiB time=00:00:03.50 bitrate=11983.8kbits/s speed=0.0133x elapsed=0:04:23.58    \nframe=  107 fps=0.4 q=35.8 size=    5120KiB time=00:00:03.50 bitrate=11983.8kbits/s speed=0.0133x elapsed=0:04:24.11    \nframe=  108 fps=0.4 q=29.9 size=    5120KiB time=00:00:03.53 bitrate=11870.8kbits/s speed=0.0134x elapsed=0:04:24.63    \nframe=  108 fps=0.4 q=29.9 size=    5120KiB time=00:00:03.53 bitrate=11870.8kbits/s speed=0.0133x elapsed=0:04:25.15    \nframe=  109 fps=0.4 q=33.7 size=    5120KiB time=00:00:03.56 bitrate=11759.8kbits/s speed=0.0134x elapsed=0:04:25.67    \nframe=  109 fps=0.4 q=33.7 size=    5120KiB time=00:00:03.56 bitrate=11759.8kbits/s speed=0.0134x elapsed=0:04:26.19    \nframe=  110 fps=0.4 q=35.7 size=    5376KiB time=00:00:03.60 bitrate=12233.5kbits/s speed=0.0135x elapsed=0:04:26.70    \nframe=  110 fps=0.4 q=35.7 size=    5376KiB time=00:00:03.60 bitrate=12233.5kbits/s speed=0.0135x elapsed=0:04:27.22    \nframe=  111 fps=0.4 q=30.1 size=    5376KiB time=00:00:03.63 bitrate=12121.3kbits/s speed=0.0136x elapsed=0:04:27.74    \nframe=  111 fps=0.4 q=30.1 size=    5376KiB time=00:00:03.63 bitrate=12121.3kbits/s speed=0.0135x elapsed=0:04:28.24    \nframe=  112 fps=0.4 q=33.1 size=    5376KiB time=00:00:03.66 bitrate=12011.1kbits/s speed=0.0136x elapsed=0:04:28.76    \nframe=  113 fps=0.4 q=35.6 size=    5376KiB time=00:00:03.70 bitrate=11902.8kbits/s speed=0.0137x elapsed=0:04:29.28    \nframe=  113 fps=0.4 q=35.6 size=    5376KiB time=00:00:03.70 bitrate=11902.8kbits/s speed=0.0137x elapsed=0:04:29.80    \nframe=  113 fps=0.4 q=35.6 size=    5376KiB time=00:00:03.70 bitrate=11902.8kbits/s speed=0.0137x elapsed=0:04:30.32    \nframe=  113 fps=0.4 q=35.6 size=    5376KiB time=00:00:03.70 bitrate=11902.8kbits/s speed=0.0137x elapsed=0:04:30.84    \nframe=  113 fps=0.4 q=35.6 size=    5376KiB time=00:00:03.70 bitrate=11902.8kbits/s speed=0.0136x elapsed=0:04:31.38    \nframe=  113 fps=0.4 q=35.6 size=    5376KiB time=00:00:03.70 bitrate=11902.8kbits/s speed=0.0136x elapsed=0:04:31.90    \nframe=  113 fps=0.4 q=35.6 size=    5376KiB time=00:00:03.70 bitrate=11902.8kbits/s speed=0.0136x elapsed=0:04:32.44    \nframe=  113 fps=0.4 q=35.6 size=    5376KiB time=00:00:03.70 bitrate=11902.8kbits/s speed=0.0136x elapsed=0:04:32.98    \nframe=  113 fps=0.4 q=35.6 size=    5376KiB time=00:00:03.70 bitrate=11902.8kbits/s speed=0.0135x elapsed=0:04:33.51    \nframe=  113 fps=0.4 q=35.6 size=    5376KiB time=00:00:03.70 bitrate=11902.8kbits/s speed=0.0135x elapsed=0:04:34.07    \nframe=  113 fps=0.4 q=35.6 size=    5376KiB time=00:00:03.70 bitrate=11902.8kbits/s speed=0.0135x elapsed=0:04:34.61    \nframe=  114 fps=0.4 q=30.1 size=    5376KiB time=00:00:03.73 bitrate=11796.6kbits/s speed=0.0136x elapsed=0:04:35.15    \nframe=  114 fps=0.4 q=30.1 size=    5376KiB time=00:00:03.73 bitrate=11796.6kbits/s speed=0.0135x elapsed=0:04:35.70    \nframe=  114 fps=0.4 q=30.1 size=    5376KiB time=00:00:03.73 bitrate=11796.6kbits/s speed=0.0135x elapsed=0:04:36.24    \nframe=  115 fps=0.4 q=34.5 size=    5632KiB time=00:00:03.76 bitrate=12248.9kbits/s speed=0.0136x elapsed=0:04:36.77    \nframe=  115 fps=0.4 q=34.5 size=    5632KiB time=00:00:03.76 bitrate=12248.9kbits/s speed=0.0136x elapsed=0:04:37.29    \nframe=  115 fps=0.4 q=34.5 size=    5632KiB time=00:00:03.76 bitrate=12248.9kbits/s speed=0.0136x elapsed=0:04:37.82    \nframe=  115 fps=0.4 q=34.5 size=    5632KiB time=00:00:03.76 bitrate=12248.9kbits/s speed=0.0135x elapsed=0:04:38.35    \nframe=  115 fps=0.4 q=34.5 size=    5632KiB time=00:00:03.76 bitrate=12248.9kbits/s speed=0.0135x elapsed=0:04:38.89    \nframe=  115 fps=0.4 q=34.5 size=    5632KiB time=00:00:03.76 bitrate=12248.9kbits/s speed=0.0135x elapsed=0:04:39.40    \nframe=  116 fps=0.4 q=35.8 size=    5632KiB time=00:00:03.80 bitrate=12141.5kbits/s speed=0.0136x elapsed=0:04:39.92    \nframe=  116 fps=0.4 q=35.8 size=    5632KiB time=00:00:03.80 bitrate=12141.5kbits/s speed=0.0135x elapsed=0:04:40.45    \nframe=  116 fps=0.4 q=35.8 size=    5632KiB time=00:00:03.80 bitrate=12141.5kbits/s speed=0.0135x elapsed=0:04:40.97    \nframe=  116 fps=0.4 q=35.8 size=    5632KiB time=00:00:03.80 bitrate=12141.5kbits/s speed=0.0135x elapsed=0:04:41.51    \nframe=  116 fps=0.4 q=35.8 size=    5632KiB time=00:00:03.80 bitrate=12141.5kbits/s speed=0.0135x elapsed=0:04:42.06    \nframe=  116 fps=0.4 q=35.8 size=    5632KiB time=00:00:03.80 bitrate=12141.5kbits/s speed=0.0134x elapsed=0:04:42.59    \nframe=  116 fps=0.4 q=35.8 size=    5632KiB time=00:00:03.80 bitrate=12141.5kbits/s speed=0.0134x elapsed=0:04:43.12    \nframe=  116 fps=0.4 q=35.8 size=    5632KiB time=00:00:03.80 bitrate=12141.5kbits/s speed=0.0134x elapsed=0:04:43.64    \nframe=  116 fps=0.4 q=35.8 size=    5632KiB time=00:00:03.80 bitrate=12141.5kbits/s speed=0.0134x elapsed=0:04:44.17    \nframe=  117 fps=0.4 q=29.8 size=    5632KiB time=00:00:03.83 bitrate=12035.9kbits/s speed=0.0135x elapsed=0:04:44.73    \nframe=  117 fps=0.4 q=29.8 size=    5632KiB time=00:00:03.83 bitrate=12035.9kbits/s speed=0.0134x elapsed=0:04:45.28    \nframe=  117 fps=0.4 q=29.8 size=    5632KiB time=00:00:03.83 bitrate=12035.9kbits/s speed=0.0134x elapsed=0:04:45.81    \nframe=  117 fps=0.4 q=29.8 size=    5632KiB time=00:00:03.83 bitrate=12035.9kbits/s speed=0.0134x elapsed=0:04:46.34    \nframe=  117 fps=0.4 q=29.8 size=    5632KiB time=00:00:03.83 bitrate=12035.9kbits/s speed=0.0134x elapsed=0:04:46.87    \nframe=  118 fps=0.4 q=33.1 size=    5632KiB time=00:00:03.86 bitrate=11932.2kbits/s speed=0.0135x elapsed=0:04:47.39    \nframe=  118 fps=0.4 q=33.1 size=    5632KiB time=00:00:03.86 bitrate=11932.2kbits/s speed=0.0134x elapsed=0:04:47.95    \nframe=  118 fps=0.4 q=33.1 size=    5632KiB time=00:00:03.86 bitrate=11932.2kbits/s speed=0.0134x elapsed=0:04:48.48    \nframe=  118 fps=0.4 q=33.1 size=    5632KiB time=00:00:03.86 bitrate=11932.2kbits/s speed=0.0134x elapsed=0:04:49.02    \nframe=  118 fps=0.4 q=33.1 size=    5632KiB time=00:00:03.86 bitrate=11932.2kbits/s speed=0.0134x elapsed=0:04:49.55    \nframe=  119 fps=0.4 q=35.7 size=    5632KiB time=00:00:03.90 bitrate=11830.2kbits/s speed=0.0134x elapsed=0:04:50.09    \nframe=  119 fps=0.4 q=35.7 size=    5632KiB time=00:00:03.90 bitrate=11830.2kbits/s speed=0.0134x elapsed=0:04:50.62    \nframe=  119 fps=0.4 q=35.7 size=    5632KiB time=00:00:03.90 bitrate=11830.2kbits/s speed=0.0134x elapsed=0:04:51.17    \nframe=  119 fps=0.4 q=35.7 size=    5632KiB time=00:00:03.90 bitrate=11830.2kbits/s speed=0.0134x elapsed=0:04:51.68    \nframe=  119 fps=0.4 q=35.7 size=    5632KiB time=00:00:03.90 bitrate=11830.2kbits/s speed=0.0133x elapsed=0:04:52.23    \nframe=  119 fps=0.4 q=35.7 size=    5632KiB time=00:00:03.90 bitrate=11830.2kbits/s speed=0.0133x elapsed=0:04:52.79    \nframe=  119 fps=0.4 q=35.7 size=    5632KiB time=00:00:03.90 bitrate=11830.2kbits/s speed=0.0133x elapsed=0:04:53.34    \nframe=  119 fps=0.4 q=35.7 size=    5632KiB time=00:00:03.90 bitrate=11830.2kbits/s speed=0.0133x elapsed=0:04:53.86    \nframe=  119 fps=0.4 q=35.7 size=    5632KiB time=00:00:03.90 bitrate=11830.2kbits/s speed=0.0132x elapsed=0:04:54.41    \nframe=  120 fps=0.4 q=35.5 size=    5632KiB time=00:00:03.93 bitrate=11729.9kbits/s speed=0.0133x elapsed=0:04:54.96    \nframe=  120 fps=0.4 q=35.5 size=    5632KiB time=00:00:03.93 bitrate=11729.9kbits/s speed=0.0133x elapsed=0:04:55.49    \nframe=  120 fps=0.4 q=35.5 size=    5632KiB time=00:00:03.93 bitrate=11729.9kbits/s speed=0.0133x elapsed=0:04:56.03    \nframe=  120 fps=0.4 q=35.5 size=    5632KiB time=00:00:03.93 bitrate=11729.9kbits/s speed=0.0133x elapsed=0:04:56.57    \nframe=  120 fps=0.4 q=35.5 size=    5632KiB time=00:00:03.93 bitrate=11729.9kbits/s speed=0.0132x elapsed=0:04:57.11    \nframe=  120 fps=0.4 q=35.5 size=    5632KiB time=00:00:03.93 bitrate=11729.9kbits/s speed=0.0132x elapsed=0:04:57.65    \nframe=  120 fps=0.4 q=35.5 size=    5632KiB time=00:00:03.93 bitrate=11729.9kbits/s speed=0.0132x elapsed=0:04:58.19    \nframe=  121 fps=0.4 q=29.8 size=    5888KiB time=00:00:03.96 bitrate=12160.0kbits/s speed=0.0133x elapsed=0:04:58.71    \nframe=  121 fps=0.4 q=29.8 size=    5888KiB time=00:00:03.96 bitrate=12160.0kbits/s speed=0.0133x elapsed=0:04:59.21    \nframe=  122 fps=0.4 q=32.5 size=    5888KiB time=00:00:04.00 bitrate=12058.7kbits/s speed=0.0133x elapsed=0:04:59.75    \nframe=  122 fps=0.4 q=32.5 size=    5888KiB time=00:00:04.00 bitrate=12058.7kbits/s speed=0.0133x elapsed=0:05:00.30    \nframe=  122 fps=0.4 q=32.5 size=    5888KiB time=00:00:04.00 bitrate=12058.7kbits/s speed=0.0133x elapsed=0:05:00.86    \nframe=  122 fps=0.4 q=32.5 size=    5888KiB time=00:00:04.00 bitrate=12058.7kbits/s speed=0.0133x elapsed=0:05:01.43    \nframe=  122 fps=0.4 q=32.5 size=    5888KiB time=00:00:04.00 bitrate=12058.7kbits/s speed=0.0132x elapsed=0:05:01.95    \nframe=  122 fps=0.4 q=32.5 size=    5888KiB time=00:00:04.00 bitrate=12058.7kbits/s speed=0.0132x elapsed=0:05:02.52    \nframe=  122 fps=0.4 q=32.5 size=    5888KiB time=00:00:04.00 bitrate=12058.7kbits/s speed=0.0132x elapsed=0:05:03.09    \nframe=  123 fps=0.4 q=35.5 size=    5888KiB time=00:00:04.03 bitrate=11959.1kbits/s speed=0.0133x elapsed=0:05:03.62    \nframe=  123 fps=0.4 q=35.5 size=    5888KiB time=00:00:04.03 bitrate=11959.1kbits/s speed=0.0133x elapsed=0:05:04.18    \nframe=  123 fps=0.4 q=35.5 size=    5888KiB time=00:00:04.03 bitrate=11959.1kbits/s speed=0.0132x elapsed=0:05:04.72    \nframe=  123 fps=0.4 q=35.5 size=    5888KiB time=00:00:04.03 bitrate=11959.1kbits/s speed=0.0132x elapsed=0:05:05.26    \nframe=  123 fps=0.4 q=35.5 size=    5888KiB time=00:00:04.03 bitrate=11959.1kbits/s speed=0.0132x elapsed=0:05:05.80    \nframe=  123 fps=0.4 q=35.5 size=    5888KiB time=00:00:04.03 bitrate=11959.1kbits/s speed=0.0132x elapsed=0:05:06.36    \nframe=  123 fps=0.4 q=35.5 size=    5888KiB time=00:00:04.03 bitrate=11959.1kbits/s speed=0.0131x elapsed=0:05:06.91    \nframe=  124 fps=0.4 q=35.7 size=    5888KiB time=00:00:04.06 bitrate=11861.0kbits/s speed=0.0132x elapsed=0:05:07.45    \nframe=  124 fps=0.4 q=35.7 size=    5888KiB time=00:00:04.06 bitrate=11861.0kbits/s speed=0.0132x elapsed=0:05:08.00    \nframe=  125 fps=0.4 q=35.2 size=    5888KiB time=00:00:04.10 bitrate=11764.6kbits/s speed=0.0133x elapsed=0:05:08.52    \nframe=  125 fps=0.4 q=35.2 size=    5888KiB time=00:00:04.10 bitrate=11764.6kbits/s speed=0.0133x elapsed=0:05:09.07    \nframe=  125 fps=0.4 q=35.2 size=    5888KiB time=00:00:04.10 bitrate=11764.6kbits/s speed=0.0132x elapsed=0:05:09.59    \nframe=  125 fps=0.4 q=35.2 size=    5888KiB time=00:00:04.10 bitrate=11764.6kbits/s speed=0.0132x elapsed=0:05:10.11    \nframe=  125 fps=0.4 q=35.2 size=    5888KiB time=00:00:04.10 bitrate=11764.6kbits/s speed=0.0132x elapsed=0:05:10.65    \nframe=  125 fps=0.4 q=35.2 size=    5888KiB time=00:00:04.10 bitrate=11764.6kbits/s speed=0.0132x elapsed=0:05:11.19    \nframe=  125 fps=0.4 q=35.2 size=    5888KiB time=00:00:04.10 bitrate=11764.6kbits/s speed=0.0132x elapsed=0:05:11.73    \nframe=  125 fps=0.4 q=35.2 size=    5888KiB time=00:00:04.10 bitrate=11764.6kbits/s speed=0.0131x elapsed=0:05:12.26    \nframe=  125 fps=0.4 q=35.2 size=    5888KiB time=00:00:04.10 bitrate=11764.6kbits/s speed=0.0131x elapsed=0:05:12.78    \nframe=  126 fps=0.4 q=29.8 size=    5888KiB time=00:00:04.13 bitrate=11669.7kbits/s speed=0.0132x elapsed=0:05:13.31    \nframe=  126 fps=0.4 q=29.8 size=    5888KiB time=00:00:04.13 bitrate=11669.7kbits/s speed=0.0132x elapsed=0:05:13.83    \nframe=  126 fps=0.4 q=29.8 size=    5888KiB time=00:00:04.13 bitrate=11669.7kbits/s speed=0.0131x elapsed=0:05:14.34    \nframe=  126 fps=0.4 q=29.8 size=    5888KiB time=00:00:04.13 bitrate=11669.7kbits/s speed=0.0131x elapsed=0:05:14.91    \nframe=  126 fps=0.4 q=29.8 size=    5888KiB time=00:00:04.13 bitrate=11669.7kbits/s speed=0.0131x elapsed=0:05:15.47    \nframe=  127 fps=0.4 q=33.2 size=    6144KiB time=00:00:04.16 bitrate=12079.7kbits/s speed=0.0132x elapsed=0:05:16.00    \nframe=  127 fps=0.4 q=33.2 size=    6144KiB time=00:00:04.16 bitrate=12079.7kbits/s speed=0.0132x elapsed=0:05:16.54    \nframe=  127 fps=0.4 q=33.2 size=    6144KiB time=00:00:04.16 bitrate=12079.7kbits/s speed=0.0131x elapsed=0:05:17.06    \nframe=  127 fps=0.4 q=33.2 size=    6144KiB time=00:00:04.16 bitrate=12079.7kbits/s speed=0.0131x elapsed=0:05:17.63    \nframe=  127 fps=0.4 q=33.2 size=    6144KiB time=00:00:04.16 bitrate=12079.7kbits/s speed=0.0131x elapsed=0:05:18.17    \nframe=  127 fps=0.4 q=33.2 size=    6144KiB time=00:00:04.16 bitrate=12079.7kbits/s speed=0.0131x elapsed=0:05:18.69    \nframe=  127 fps=0.4 q=33.2 size=    6144KiB time=00:00:04.16 bitrate=12079.7kbits/s speed=0.0131x elapsed=0:05:19.23    \nframe=  127 fps=0.4 q=33.2 size=    6144KiB time=00:00:04.16 bitrate=12079.7kbits/s speed=0.013x elapsed=0:05:19.75    \nframe=  127 fps=0.4 q=33.2 size=    6144KiB time=00:00:04.16 bitrate=12079.7kbits/s speed=0.013x elapsed=0:05:20.27    \nframe=  127 fps=0.4 q=33.2 size=    6144KiB time=00:00:04.16 bitrate=12079.7kbits/s speed=0.013x elapsed=0:05:20.80    \nframe=  127 fps=0.4 q=33.2 size=    6144KiB time=00:00:04.16 bitrate=12079.7kbits/s speed=0.013x elapsed=0:05:21.34    \nframe=  127 fps=0.4 q=33.2 size=    6144KiB time=00:00:04.16 bitrate=12079.7kbits/s speed=0.0129x elapsed=0:05:21.89    \nframe=  127 fps=0.4 q=33.2 size=    6144KiB time=00:00:04.16 bitrate=12079.7kbits/s speed=0.0129x elapsed=0:05:22.42    \nframe=  128 fps=0.4 q=35.7 size=    6144KiB time=00:00:04.20 bitrate=11983.8kbits/s speed=0.013x elapsed=0:05:22.95    \nframe=  129 fps=0.4 q=29.6 size=    6144KiB time=00:00:04.23 bitrate=11889.4kbits/s speed=0.0131x elapsed=0:05:23.47    \nframe=  129 fps=0.4 q=29.6 size=    6144KiB time=00:00:04.23 bitrate=11889.4kbits/s speed=0.0131x elapsed=0:05:24.01    \nframe=  129 fps=0.4 q=29.6 size=    6144KiB time=00:00:04.23 bitrate=11889.4kbits/s speed=0.013x elapsed=0:05:24.57    \nframe=  129 fps=0.4 q=29.6 size=    6144KiB time=00:00:04.23 bitrate=11889.4kbits/s speed=0.013x elapsed=0:05:25.11    \nframe=  129 fps=0.4 q=29.6 size=    6144KiB time=00:00:04.23 bitrate=11889.4kbits/s speed=0.013x elapsed=0:05:25.66    \nframe=  129 fps=0.4 q=29.6 size=    6144KiB time=00:00:04.23 bitrate=11889.4kbits/s speed=0.013x elapsed=0:05:26.18    \nframe=  129 fps=0.4 q=29.6 size=    6144KiB time=00:00:04.23 bitrate=11889.4kbits/s speed=0.013x elapsed=0:05:26.71    \nframe=  129 fps=0.4 q=29.6 size=    6144KiB time=00:00:04.23 bitrate=11889.4kbits/s speed=0.0129x elapsed=0:05:27.23    \nframe=  129 fps=0.4 q=29.6 size=    6144KiB time=00:00:04.23 bitrate=11889.4kbits/s speed=0.0129x elapsed=0:05:27.77    \nframe=  130 fps=0.4 q=32.5 size=    6144KiB time=00:00:04.26 bitrate=11796.6kbits/s speed=0.013x elapsed=0:05:28.31    \nframe=  130 fps=0.4 q=32.5 size=    6144KiB time=00:00:04.26 bitrate=11796.6kbits/s speed=0.013x elapsed=0:05:28.82    \nframe=  130 fps=0.4 q=32.5 size=    6144KiB time=00:00:04.26 bitrate=11796.6kbits/s speed=0.013x elapsed=0:05:29.35    \nframe=  130 fps=0.4 q=32.5 size=    6144KiB time=00:00:04.26 bitrate=11796.6kbits/s speed=0.0129x elapsed=0:05:29.91    \nframe=  130 fps=0.4 q=32.5 size=    6144KiB time=00:00:04.26 bitrate=11796.6kbits/s speed=0.0129x elapsed=0:05:30.43    \nframe=  130 fps=0.4 q=32.5 size=    6144KiB time=00:00:04.26 bitrate=11796.6kbits/s speed=0.0129x elapsed=0:05:30.97    \nframe=  130 fps=0.4 q=32.5 size=    6144KiB time=00:00:04.26 bitrate=11796.6kbits/s speed=0.0129x elapsed=0:05:31.52    \nframe=  131 fps=0.4 q=34.8 size=    6144KiB time=00:00:04.30 bitrate=11705.1kbits/s speed=0.0129x elapsed=0:05:32.05    \nframe=  131 fps=0.4 q=34.8 size=    6144KiB time=00:00:04.30 bitrate=11705.1kbits/s speed=0.0129x elapsed=0:05:32.60    \nframe=  131 fps=0.4 q=34.8 size=    6144KiB time=00:00:04.30 bitrate=11705.1kbits/s speed=0.0129x elapsed=0:05:33.12    \nframe=  131 fps=0.4 q=34.8 size=    6144KiB time=00:00:04.30 bitrate=11705.1kbits/s speed=0.0129x elapsed=0:05:33.64    \nframe=  131 fps=0.4 q=34.8 size=    6144KiB time=00:00:04.30 bitrate=11705.1kbits/s speed=0.0129x elapsed=0:05:34.15    \nframe=  131 fps=0.4 q=34.8 size=    6144KiB time=00:00:04.30 bitrate=11705.1kbits/s speed=0.0128x elapsed=0:05:34.68    \nframe=  132 fps=0.4 q=35.3 size=    6144KiB time=00:00:04.33 bitrate=11615.1kbits/s speed=0.0129x elapsed=0:05:35.22    \nframe=  132 fps=0.4 q=35.3 size=    6144KiB time=00:00:04.33 bitrate=11615.1kbits/s speed=0.0129x elapsed=0:05:35.75    \nframe=  132 fps=0.4 q=35.3 size=    6144KiB time=00:00:04.33 bitrate=11615.1kbits/s speed=0.0129x elapsed=0:05:36.27    \nframe=  132 fps=0.4 q=35.3 size=    6144KiB time=00:00:04.33 bitrate=11615.1kbits/s speed=0.0129x elapsed=0:05:36.79    \nframe=  132 fps=0.4 q=35.3 size=    6144KiB time=00:00:04.33 bitrate=11615.1kbits/s speed=0.0128x elapsed=0:05:37.34    \nframe=  133 fps=0.4 q=29.6 size=    6144KiB time=00:00:04.36 bitrate=11526.4kbits/s speed=0.0129x elapsed=0:05:37.87    \nframe=  133 fps=0.4 q=29.6 size=    6144KiB time=00:00:04.36 bitrate=11526.4kbits/s speed=0.0129x elapsed=0:05:38.40    \nframe=  133 fps=0.4 q=29.6 size=    6144KiB time=00:00:04.36 bitrate=11526.4kbits/s speed=0.0129x elapsed=0:05:38.94    \nframe=  133 fps=0.4 q=29.6 size=    6144KiB time=00:00:04.36 bitrate=11526.4kbits/s speed=0.0129x elapsed=0:05:39.46    \nframe=  133 fps=0.4 q=29.6 size=    6144KiB time=00:00:04.36 bitrate=11526.4kbits/s speed=0.0128x elapsed=0:05:40.00    \nframe=  133 fps=0.4 q=29.6 size=    6144KiB time=00:00:04.36 bitrate=11526.4kbits/s speed=0.0128x elapsed=0:05:40.55    \nframe=  133 fps=0.4 q=29.6 size=    6144KiB time=00:00:04.36 bitrate=11526.4kbits/s speed=0.0128x elapsed=0:05:41.07    \nframe=  134 fps=0.4 q=30.2 size=    6400KiB time=00:00:04.40 bitrate=11915.7kbits/s speed=0.0129x elapsed=0:05:41.59    \nframe=  134 fps=0.4 q=30.2 size=    6400KiB time=00:00:04.40 bitrate=11915.7kbits/s speed=0.0129x elapsed=0:05:42.10    \nframe=  135 fps=0.4 q=35.4 size=    6400KiB time=00:00:04.43 bitrate=11826.1kbits/s speed=0.0129x elapsed=0:05:42.62    \nframe=  135 fps=0.4 q=35.4 size=    6400KiB time=00:00:04.43 bitrate=11826.1kbits/s speed=0.0129x elapsed=0:05:43.14    \nframe=  135 fps=0.4 q=35.4 size=    6400KiB time=00:00:04.43 bitrate=11826.1kbits/s speed=0.0129x elapsed=0:05:43.65    \nframe=  136 fps=0.4 q=34.9 size=    6400KiB time=00:00:04.46 bitrate=11737.9kbits/s speed=0.013x elapsed=0:05:44.17    \nframe=  137 fps=0.4 q=35.2 size=    6400KiB time=00:00:04.50 bitrate=11650.9kbits/s speed=0.0131x elapsed=0:05:44.71    \nframe=  137 fps=0.4 q=35.2 size=    6400KiB time=00:00:04.50 bitrate=11650.9kbits/s speed=0.013x elapsed=0:05:45.23    \nframe=  137 fps=0.4 q=35.2 size=    6400KiB time=00:00:04.50 bitrate=11650.9kbits/s speed=0.013x elapsed=0:05:45.74    \nframe=  138 fps=0.4 q=29.8 size=    6656KiB time=00:00:04.53 bitrate=12027.9kbits/s speed=0.0131x elapsed=0:05:46.27    \nframe=  138 fps=0.4 q=29.8 size=    6656KiB time=00:00:04.53 bitrate=12027.9kbits/s speed=0.0131x elapsed=0:05:46.78    \nframe=  139 fps=0.4 q=32.6 size=    6656KiB time=00:00:04.56 bitrate=11940.1kbits/s speed=0.0131x elapsed=0:05:47.30    \nframe=  139 fps=0.4 q=32.6 size=    6656KiB time=00:00:04.56 bitrate=11940.1kbits/s speed=0.0131x elapsed=0:05:47.82    \nframe=  139 fps=0.4 q=32.6 size=    6656KiB time=00:00:04.56 bitrate=11940.1kbits/s speed=0.0131x elapsed=0:05:48.39    \nframe=  139 fps=0.4 q=32.6 size=    6656KiB time=00:00:04.56 bitrate=11940.1kbits/s speed=0.0131x elapsed=0:05:48.98    \nframe=  139 fps=0.4 q=32.6 size=    6656KiB time=00:00:04.56 bitrate=11940.1kbits/s speed=0.0131x elapsed=0:05:49.54    \nframe=  139 fps=0.4 q=32.6 size=    6656KiB time=00:00:04.56 bitrate=11940.1kbits/s speed=0.013x elapsed=0:05:50.12    \nframe=  139 fps=0.4 q=32.6 size=    6656KiB time=00:00:04.56 bitrate=11940.1kbits/s speed=0.013x elapsed=0:05:50.69    \nframe=  140 fps=0.4 q=35.2 size=    6656KiB time=00:00:04.60 bitrate=11853.5kbits/s speed=0.0131x elapsed=0:05:51.20    \nframe=  140 fps=0.4 q=35.2 size=    6656KiB time=00:00:04.60 bitrate=11853.5kbits/s speed=0.0131x elapsed=0:05:51.72    \nframe=  140 fps=0.4 q=35.2 size=    6656KiB time=00:00:04.60 bitrate=11853.5kbits/s speed=0.0131x elapsed=0:05:52.23    \nframe=  140 fps=0.4 q=35.2 size=    6656KiB time=00:00:04.60 bitrate=11853.5kbits/s speed=0.013x elapsed=0:05:52.78    \nframe=  140 fps=0.4 q=35.2 size=    6656KiB time=00:00:04.60 bitrate=11853.5kbits/s speed=0.013x elapsed=0:05:53.36    \nframe=  140 fps=0.4 q=35.2 size=    6656KiB time=00:00:04.60 bitrate=11853.5kbits/s speed=0.013x elapsed=0:05:53.87    \nframe=  140 fps=0.4 q=35.2 size=    6656KiB time=00:00:04.60 bitrate=11853.5kbits/s speed=0.013x elapsed=0:05:54.40    \nframe=  140 fps=0.4 q=35.2 size=    6656KiB time=00:00:04.60 bitrate=11853.5kbits/s speed=0.013x elapsed=0:05:54.99    \nframe=  140 fps=0.4 q=35.2 size=    6656KiB time=00:00:04.60 bitrate=11853.5kbits/s speed=0.0129x elapsed=0:05:55.51    \nframe=  140 fps=0.4 q=35.2 size=    6656KiB time=00:00:04.60 bitrate=11853.5kbits/s speed=0.0129x elapsed=0:05:56.05    \nframe=  140 fps=0.4 q=35.2 size=    6656KiB time=00:00:04.60 bitrate=11853.5kbits/s speed=0.0129x elapsed=0:05:56.55    \nframe=  140 fps=0.4 q=35.2 size=    6656KiB time=00:00:04.60 bitrate=11853.5kbits/s speed=0.0129x elapsed=0:05:57.08    \nframe=  140 fps=0.4 q=35.2 size=    6656KiB time=00:00:04.60 bitrate=11853.5kbits/s speed=0.0129x elapsed=0:05:57.60    \nframe=  140 fps=0.4 q=35.2 size=    6656KiB time=00:00:04.60 bitrate=11853.5kbits/s speed=0.0128x elapsed=0:05:58.14    \nframe=  141 fps=0.4 q=35.3 size=    6656KiB time=00:00:04.63 bitrate=11768.3kbits/s speed=0.0129x elapsed=0:05:58.68    \nframe=  141 fps=0.4 q=35.3 size=    6656KiB time=00:00:04.63 bitrate=11768.3kbits/s speed=0.0129x elapsed=0:05:59.20    \nframe=  141 fps=0.4 q=35.3 size=    6656KiB time=00:00:04.63 bitrate=11768.3kbits/s speed=0.0129x elapsed=0:05:59.73    \nframe=  141 fps=0.4 q=35.3 size=    6656KiB time=00:00:04.63 bitrate=11768.3kbits/s speed=0.0129x elapsed=0:06:00.25    \nframe=  141 fps=0.4 q=35.3 size=    6656KiB time=00:00:04.63 bitrate=11768.3kbits/s speed=0.0128x elapsed=0:06:00.76    \nframe=  141 fps=0.4 q=35.3 size=    6656KiB time=00:00:04.63 bitrate=11768.3kbits/s speed=0.0128x elapsed=0:06:01.34    \nframe=  141 fps=0.4 q=35.3 size=    6656KiB time=00:00:04.63 bitrate=11768.3kbits/s speed=0.0128x elapsed=0:06:01.90    \nframe=  141 fps=0.4 q=35.3 size=    6656KiB time=00:00:04.63 bitrate=11768.3kbits/s speed=0.0128x elapsed=0:06:02.45    \nframe=  142 fps=0.4 q=30.7 size=    6656KiB time=00:00:04.66 bitrate=11684.2kbits/s speed=0.0129x elapsed=0:06:02.98    \nframe=  142 fps=0.4 q=30.7 size=    6656KiB time=00:00:04.66 bitrate=11684.2kbits/s speed=0.0128x elapsed=0:06:03.50    \nframe=  142 fps=0.4 q=30.7 size=    6656KiB time=00:00:04.66 bitrate=11684.2kbits/s speed=0.0128x elapsed=0:06:04.05    \nframe=  142 fps=0.4 q=30.7 size=    6656KiB time=00:00:04.66 bitrate=11684.2kbits/s speed=0.0128x elapsed=0:06:04.59    \nframe=  142 fps=0.4 q=30.7 size=    6656KiB time=00:00:04.66 bitrate=11684.2kbits/s speed=0.0128x elapsed=0:06:05.10    \nframe=  142 fps=0.4 q=30.7 size=    6656KiB time=00:00:04.66 bitrate=11684.2kbits/s speed=0.0128x elapsed=0:06:05.65    \nframe=  142 fps=0.4 q=30.7 size=    6656KiB time=00:00:04.66 bitrate=11684.2kbits/s speed=0.0127x elapsed=0:06:06.18    \nframe=  143 fps=0.4 q=34.1 size=    6912KiB time=00:00:04.70 bitrate=12047.5kbits/s speed=0.0128x elapsed=0:06:06.75    \nframe=  143 fps=0.4 q=34.1 size=    6912KiB time=00:00:04.70 bitrate=12047.5kbits/s speed=0.0128x elapsed=0:06:07.29    \nframe=  144 fps=0.4 q=35.2 size=    6912KiB time=00:00:04.73 bitrate=11962.7kbits/s speed=0.0129x elapsed=0:06:07.82    \nframe=  144 fps=0.4 q=35.2 size=    6912KiB time=00:00:04.73 bitrate=11962.7kbits/s speed=0.0128x elapsed=0:06:08.35    \nframe=  144 fps=0.4 q=35.2 size=    6912KiB time=00:00:04.73 bitrate=11962.7kbits/s speed=0.0128x elapsed=0:06:08.87    \nframe=  144 fps=0.4 q=35.2 size=    6912KiB time=00:00:04.73 bitrate=11962.7kbits/s speed=0.0128x elapsed=0:06:09.38    \nframe=  144 fps=0.4 q=35.2 size=    6912KiB time=00:00:04.73 bitrate=11962.7kbits/s speed=0.0128x elapsed=0:06:09.92    \nframe=  144 fps=0.4 q=35.2 size=    6912KiB time=00:00:04.73 bitrate=11962.7kbits/s speed=0.0128x elapsed=0:06:10.46    \nframe=  145 fps=0.4 q=35.3 size=    6912KiB time=00:00:04.76 bitrate=11879.0kbits/s speed=0.0128x elapsed=0:06:10.99    \nframe=  145 fps=0.4 q=35.3 size=    6912KiB time=00:00:04.76 bitrate=11879.0kbits/s speed=0.0128x elapsed=0:06:11.53    \nframe=  145 fps=0.4 q=35.3 size=    6912KiB time=00:00:04.76 bitrate=11879.0kbits/s speed=0.0128x elapsed=0:06:12.05    \nframe=  145 fps=0.4 q=35.3 size=    6912KiB time=00:00:04.76 bitrate=11879.0kbits/s speed=0.0128x elapsed=0:06:12.57    \nframe=  146 fps=0.4 q=35.4 size=    6912KiB time=00:00:04.80 bitrate=11796.6kbits/s speed=0.0129x elapsed=0:06:13.10    \nframe=  146 fps=0.4 q=35.4 size=    6912KiB time=00:00:04.80 bitrate=11796.6kbits/s speed=0.0128x elapsed=0:06:13.61    \nframe=  146 fps=0.4 q=35.4 size=    6912KiB time=00:00:04.80 bitrate=11796.6kbits/s speed=0.0128x elapsed=0:06:14.16    \nframe=  146 fps=0.4 q=35.4 size=    6912KiB time=00:00:04.80 bitrate=11796.6kbits/s speed=0.0128x elapsed=0:06:14.68    \nframe=  147 fps=0.4 q=32.8 size=    6912KiB time=00:00:04.83 bitrate=11715.2kbits/s speed=0.0129x elapsed=0:06:15.18    \nframe=  148 fps=0.4 q=32.8 size=    7168KiB time=00:00:04.86 bitrate=12065.9kbits/s speed=0.013x elapsed=0:06:15.70    \nframe=  148 fps=0.4 q=32.8 size=    7168KiB time=00:00:04.86 bitrate=12065.9kbits/s speed=0.0129x elapsed=0:06:16.22    \nframe=  149 fps=0.4 q=35.5 size=    7168KiB time=00:00:04.90 bitrate=11983.8kbits/s speed=0.013x elapsed=0:06:16.75    \n[mp4 @ 000001af7f57aa80] Starting second pass: moving the moov atom to the beginning of the file\n[out#0/mp4 @ 000001af7f581800] video:7282KiB audio:0KiB subtitle:0KiB other streams:0KiB global headers:2KiB muxing overhead: 0.071121%\nframe=  150 fps=0.4 q=35.3 Lsize=    7287KiB time=00:00:04.93 bitrate=12099.9kbits/s speed=0.0131x elapsed=0:06:17.01    \nx265 [info]: frame I:      1, Avg QP:24.24  kb/s: 73577.28\nx265 [info]: frame P:     36, Avg QP:29.81  kb/s: 31461.88\nx265 [info]: frame B:    113, Avg QP:34.76  kb/s: 5160.74 \nx265 [info]: Weighted P-Frames: Y:63.9% UV:58.3%\n\nencoded 150 frames in 375.77s (0.40 fps), 11929.12 kb/s, Avg QP:33.50\n",
  "seconds": 379.1740801334381,
  "probe_out": {}
}